<svg id="Assets" xmlns="http://www.w3.org/2000/svg" viewBox="0 0 800 800"><defs><style>.cls-1{fill:#002831;}.cls-2{fill:#73508f;}.cls-3{opacity:0.79;}.cls-4{opacity:0.29;}.cls-5{fill:#9800d0;}.cls-6{fill:#fff;}</style></defs><g id="Forma_561_copia_5" data-name="Forma 561 copia 5"><path class="cls-1" d="M653.5,350.26c-42.29-8.81-141.84-7.21-186,23.3-24.77,17.1-38.23,23.75-45.29,26.29-16.63,5.19-30.37,4.19-44.4,0-7.06-2.54-20.52-9.19-45.29-26.29-44.17-30.51-143.72-32.11-186-23.3s-36.25,16.15-25.35,23.3,59.26,12,38,65.77c0,0-8.42,9,0,13.7,9.66,5.34,36.1,10.59,28.44,54.13-3,16.75,1.82,15,6.51,16.79,6.14,2.3,30,6.27,39.39,30.14,0,0,1.47,10.77,7.54,7.54,12.15-6.46,26.31-14.7,49.67-1,0,0,2.22,4,6.85.34,19.24-15.12,16.89-10.13,34.94-17.81,6-2.57,10-6.36,17.91-16.42,22.22-26.24,26.35-44.44,28.34-61.34,1.66-12.68,9.16-18.73,19.13-20.58.69-.06,1.4-.1,2.11-.14s1.42.08,2.11.14c10,1.85,17.47,7.9,19.13,20.58,2,16.9,6.12,35.1,28.34,61.34,7.94,10.06,11.88,13.85,17.91,16.42,18.05,7.68,15.7,2.69,34.94,17.81,4.63,3.64,6.85-.34,6.85-.34,23.36-13.67,37.52-5.43,49.67,1,6.07,3.23,7.54-7.54,7.54-7.54,9.37-23.87,33.25-27.84,39.39-30.14,4.69-1.76,9.46,0,6.51-16.79-7.66-43.54,18.78-48.79,28.44-54.13,8.42-4.66,0-13.7,0-13.7-21.32-50.07,27-58.56,38-65.77S695.79,359.07,653.5,350.26Zm-301.2,154c-5.81,11.88-11.48,17-11.42,16.84,0,.06-4.61,5.2-15.78,10.21s-29.09,9.82-58,8.15C197.79,536.4,182.48,419.25,196,393.65c12.78-26,57.34-24.33,96-15.38,19.65,4.43,37.35,11.34,50,22.28a58.27,58.27,0,0,1,21.09,42.94C364,473.54,358.06,492.27,352.3,504.28Zm180.58,35.2c-28.89,1.67-46.7-3.18-58-8.15s-15.82-10.15-15.77-10.21c.05.19-5.62-5-11.43-16.84S436,473.54,436.85,443.49a58.27,58.27,0,0,1,21.09-42.94c12.68-10.94,30.38-17.85,50-22.28,38.7-8.95,83.26-10.64,96,15.38C617.52,419.25,602.21,536.4,532.88,539.48Z"/></g><g id="Forma_561_copia_7" data-name="Forma 561 copia 7"><path class="cls-2" d="M226.09,541.65a43.21,43.21,0,0,1,7.42,12.44s1.15,8.42,5.62,8.13a19.14,19.14,0,0,1-.82-3.33A42.87,42.87,0,0,0,226.09,541.65ZM155.61,393.22c7.43,9,12.12,29.81,3.56,46.11,0,0-8.42,9,0,13.7.39.22.8.43,1.23.64-.69-3.31,4.26-10.23,4.26-10.23C175,420.91,166,401.87,155.61,393.22Zm25.64,74.14c6.09,7.54,9.93,19.51,6.36,39.8-2.44,13.85.4,15.07,4.11,16.07-.42-2.29-.28-5.79.68-11.27C196.85,486.71,189.82,474.34,181.25,467.36ZM426,470.16c-1-7.88-4.33-13.2-9.06-16.54a25.87,25.87,0,0,1,4.26,11.75c2,16.9,6.12,35.1,28.34,61.34,4.49,5.69,7.7,9.37,10.73,12-1.75-2-3.68-4.31-5.94-7.16C432.15,505.27,428,487.07,426,470.16ZM653.5,350.26c-42.29-8.81-141.84-7.21-186,23.3-24.77,17.1-38.23,23.75-45.29,26.29-10.77,3.47-30.31,3.91-44.4,0-7.06-2.54-20.52-9.19-45.29-26.29-44.17-30.51-143.72-32.11-186-23.3-38.85,8.1-36.91,14.95-27.89,21.55-2.82-5.16,3.14-10.59,32.69-16.75,42.28-8.81,141.83-7.22,186,23.29,24.76,17.11,38.23,23.75,45.29,26.29,10.71,6.3,29,5.29,44.39,0,7.06-2.54,20.53-9.18,45.29-26.29,44.18-30.51,143.73-32.1,186-23.29,14.66,3.06,23.51,5.93,28.37,8.69C685.49,359.56,676.89,355.14,653.5,350.26ZM348.22,406.55a57.72,57.72,0,0,1,14.93,36.94c.81,30.05-5.09,48.78-10.85,60.79s-11.48,17-11.42,16.84c0,.06-4.61,5.2-15.78,10.21s-29.09,9.82-58,8.15c-15.07-.67-27.59-6.73-37.81-16.07,11,12,25.09,20.09,42.6,20.87,28.9,1.66,46.7-3.18,58-8.15s15.82-10.15,15.77-10.21c-.06.19,5.62-5,11.43-16.85s11.66-30.74,10.84-60.78A58.1,58.1,0,0,0,348.22,406.55Zm252.25-18.48a30.36,30.36,0,0,1,3.54,5.58c13.51,25.6-1.8,142.75-71.13,145.83-28.89,1.67-46.7-3.18-58-8.15a59.5,59.5,0,0,1-13.48-8.05,16.76,16.76,0,0,0,2.5,2.64c-.05.06,4.6,5.19,15.78,10.21s29.08,9.81,58,8.15C607,541.19,622.32,424,608.8,398.44A30.6,30.6,0,0,0,600.47,388.07Z"/></g><g id="Forma_561_copia_3" data-name="Forma 561 copia 3" class="cls-3"><path class="cls-1" d="M363.15,443.49a58.27,58.27,0,0,0-21.09-42.94c-12.68-10.94-30.38-17.85-50-22.28-38.7-8.95-83.26-10.64-96,15.38-13.51,25.6,1.8,142.75,71.13,145.83,28.89,1.67,46.7-3.18,58-8.15s15.82-10.15,15.78-10.21c-.06.19,5.61-5,11.42-16.84S364,473.54,363.15,443.49Z"/></g><g id="Forma_562" data-name="Forma 562" class="cls-4"><path class="cls-5" d="M297,387a221.69,221.69,0,0,0-42.84-6c-16.36-.65-32.92.78-43.33,6.78-10.66,6-15.17,16.65-13.46,35.22,3.26,37.08,15.19,65,29.76,82.45,14.84,17.82,27.52,23.21,35.83,21.6a114.38,114.38,0,0,1-15-38.08c-4.68-22.16-2.29-50.94,14.62-67.31,16.87-16.56,29.78-23.21,38-26.53s11.89-3,12-3A95.72,95.72,0,0,0,297,387Z"/></g><g id="Forma_563" data-name="Forma 563"><path class="cls-6" d="M232.22,391.55c-12.82-2-16.6,5.6-21.19,17.59-4.49,11.72,1.54,21.58,10.81,20.22,9.88-1.46,19.2-19.48,19.2-19.48S247.85,394,232.22,391.55Z"/></g><g id="Forma_561_copia_5-2" data-name="Forma 561 copia 5" class="cls-3"><path class="cls-1" d="M604,393.65c-12.78-26-57.34-24.33-96-15.38-19.65,4.43-37.35,11.34-50,22.28a58.27,58.27,0,0,0-21.09,42.94c-.81,30.05,5.09,48.78,10.85,60.79s11.48,17,11.43,16.84c-.05.06,4.6,5.2,15.77,10.21s29.09,9.82,58,8.15C602.21,536.4,617.52,419.25,604,393.65Z"/></g><g id="Forma_562_copia" data-name="Forma 562 copia" class="cls-4"><path class="cls-5" d="M534.18,380.9a193.84,193.84,0,0,0-39.24,9c-15,5.07-30.16,12.27-39.69,21.89-9.76,9.74-13.89,22-12.33,39.93,3,36,14.16,58.71,27.94,69.48,14,11,25.82,11.25,33.38,6.94a74.86,74.86,0,0,1-14.22-31c-4.57-19.45-2.6-48.23,12.79-70.1,15.33-22,27.14-33.13,34.65-39.27s10.88-7.16,11-7.16A66.69,66.69,0,0,0,534.18,380.9Z"/></g><g id="Forma_563_copia" data-name="Forma 563 copia"><path class="cls-6" d="M474.08,406.62c-12.82-2-16.6,5.6-21.2,17.59-4.49,11.72,1.54,21.59,10.81,20.22,9.89-1.46,19.2-19.47,19.2-19.47S489.7,409,474.08,406.62Z"/></g></svg>