<svg id="Assets" xmlns="http://www.w3.org/2000/svg" viewBox="0 0 800 800"><defs><style>.cls-1{fill:#efb28a;}.cls-2{fill:#b57d5a;}.cls-3{fill:#fdb988;}.cls-4{opacity:0.77;}.cls-5{fill:#ffe3c6;}.cls-6{opacity:0.26;}.cls-7{fill:#6e4330;}.cls-8{opacity:0.62;}.cls-9{fill:#a37458;}.cls-10{opacity:0.73;}.cls-11{fill:#6f442d;}.cls-12{fill:#865c45;}.cls-13{fill:#9a705a;}.cls-14{fill:#bc9680;}.cls-15{opacity:0.49;}.cls-16{fill:#51302a;}.cls-17{fill:#45231f;}.cls-18{fill:#060000;}.cls-19{fill:#7d6062;}.cls-20{fill:#fff;}.cls-21{fill:#62372d;}.cls-22{fill:#522b22;}.cls-23{opacity:0.47;}.cls-24{fill:#aa806b;}.cls-25{opacity:0.38;}</style></defs><g id="Forma_6221" data-name="Forma 6221"><path class="cls-1" d="M594.41,568.76,178.15,579S176.3,697.6,216.61,733.55,312.33,800,401.83,800c88.92,0,180-37.6,208.65-101C639.3,635.33,594.41,568.76,594.41,568.76Z"/></g><g id="Forma_6223" data-name="Forma 6223"><path class="cls-2" d="M223.79,666s31.4,134,179.79,134c163.59,0,219.18-144.38,225.12-189.49Z"/></g><g id="Forma_6198" data-name="Forma 6198"><path class="cls-3" d="M670.23,355.23c-13.52-44.16-81.9-97.06-113.94-110.16s-72.17-45.15-87.17-13.38c0,0-46.44-36-67.26-3.78,0,0-12.36-24.11-28.83-7.89,0,0-23.55-15.49-51.82,5.14s-47,10.06-95.4,39.13-97.19,61.4-89.57,162c8.5,112.3-11.73,118.37-.69,154.43,12.94,42.28,25.66,76.36,113.94,142.77,90.14,55.11,117.23,50.45,152.37,50.45,63.71,0,97.67-5.54,222.73-108.79,28.3-25.55,42.54-73.47,34.66-129.73S683.75,399.39,670.23,355.23Z"/></g><g id="Forma_6226" data-name="Forma 6226" class="cls-4"><path class="cls-5" d="M388.42,215a2.91,2.91,0,0,0-.39-.12l-.11,0c-.4-.11-.81-.2-1.23-.28l-.15,0-.35-.06-.2,0-.35,0-.2,0-.61,0H384l-.31,0-.3,0-.29,0-.55.08-.26,0-.35.08-.28.06-.37.09-.25.08-.59.18-.17.06-.48.18-.24.1-.42.19-.23.11-.51.25-.15.07-.64.36-.21.13-.47.29-.23.15-.49.34-.19.13-.67.5-.14.12c-.19.14-.37.29-.55.44l-.22.19-.5.44-.21.19-.7.67s-23.55-15.49-51.82,5.14l-1.3.94-.43.29-.86.6-.5.33-.78.52-.53.34-.74.47-.54.33-.72.44-.54.32-.71.41-.53.31-.71.39-.53.29-.7.38-.53.27-.7.36-.52.26-.71.35-.5.24-.72.33-.48.22-.73.33-.47.21-.75.31-.45.19-.76.31-.43.17-.79.31-.4.15-.82.31L301,236l-.86.31-.33.11-.9.31-.28.09-1,.32-.23.07-1,.32-.16.05-1.12.34H295c-17,5-35.36,6.75-65.75,24.34h0c3,4.9,7.12,7.84,12.65,5.82,17.21-6.26,50.76-20.54,68.29-24s26.19-17,40.5-18.53,18.18,4.12,18.18,4.12,11.16-10.67,20.88-14.07c-.42-.19-.85-.35-1.28-.5Zm-31.06,50.67c2.27,19,7.33,33.45-2.13,61.38,0,0,23-3.65,13.21-65.64C364.54,236.73,355.09,246.72,357.36,265.71ZM150.65,552.56C149.3,526.4,161.85,504.86,152,441c-4.61-30-.2-77.41,5.77-119.32a124.51,124.51,0,0,0-15.62,33.65l-.09.32c-.24.81-.47,1.64-.7,2.47-.06.22-.13.43-.19.66l-.6,2.3c-.07.3-.15.59-.22.89-.18.73-.35,1.47-.52,2.21-.08.35-.17.7-.25,1.06l-.45,2.14c-.09.4-.17.8-.25,1.21-.14.69-.27,1.39-.4,2.09-.08.44-.17.88-.25,1.33-.12.68-.23,1.37-.35,2.06-.07.48-.15,1-.23,1.44l-.3,2-.21,1.54c-.09.67-.18,1.35-.26,2s-.13,1.09-.19,1.64-.15,1.34-.22,2-.11,1.15-.17,1.73-.12,1.34-.17,2-.1,1.22-.14,1.83-.1,1.33-.14,2-.07,1.28-.11,1.92-.07,1.33-.1,2,0,1.34-.07,2-.05,1.33-.07,2,0,1.4,0,2.11,0,1.32,0,2,0,1.48,0,2.22,0,1.3,0,2,0,1.58,0,2.37,0,1.27,0,1.91c0,.85.06,1.72.09,2.57l.06,1.81c.05,1,.1,2,.16,2.95,0,.5.05,1,.08,1.52.09,1.5.19,3,.31,4.56,8.5,112.3-11.73,118.37-.69,154.43,12.94,42.28,25.66,76.36,113.94,142.77,12.86,7.87,24.44,14.51,34.94,20.13-20-17.32-45.76-40.37-71.66-65.43C158.15,625.32,152,578.73,150.65,552.56ZM437.57,216l-1-.24-.52-.12-.78-.16-.58-.12-.73-.14-.6-.1-.71-.11-.62-.09-.7-.09-.63-.08-.71-.06-.61-.06-1.23-.08-.68,0h-.62c-.24,0-.48,0-.72,0h-.58l-.73,0-.55,0-.75,0-.52.05-.77.08-.46.06-.83.12-.26.05a28.71,28.71,0,0,0-3.05.71l-.28.08c-.29.08-.58.18-.87.28l-.35.12-.83.31-.36.14c-.28.11-.56.23-.83.36l-.32.14-.86.42-.21.11a26.74,26.74,0,0,0-4,2.56l-.16.13-.83.68-.24.21c-.26.24-.52.47-.78.72l-.25.24-.77.77-.22.24c-.26.28-.53.57-.79.87l-.08.1a33.27,33.27,0,0,0-2.62,3.48,15.52,15.52,0,0,0,.86,5.74c3,8.19,9.78-13.89,35-17.32h0Zm-6.88,44.17s-11.89,41.15-4.81,68.29,4.82,3,4.81-1-3.23-22.87,5.15-66.57C439.1,246.77,431.47,258.61,430.69,260.17ZM520,227.38l-1.16-.55-.56-.26-.95-.44-.6-.28-1-.45-.52-.23-1.21-.54-.4-.17-1-.41-.47-.2-1.21-.5-.42-.17-1-.39-.4-.15-1.21-.47-.43-.16-1-.38-.31-.11-1.18-.41-.42-.14-1.21-.39-.26-.09-1-.31-.39-.11c-.39-.12-.79-.23-1.18-.33l-.33-.09-1-.25-.34-.08-1.16-.27-.35-.07-1-.2-.25-.05-1.14-.19-.36-.06-1.11-.15-.19,0-1-.1-.34,0-1.1-.07h-.25l-.93,0h-.29l-1.07,0h-.28l-.91.06-.23,0c-.35,0-.69.08-1,.12l-.29.05c-.32,0-.64.1-1,.16l-.13,0c-.33.07-.66.14-1,.23l-.28.07c-.33.08-.66.18-1,.28l-.18.06-.84.3-.25.09c-.32.13-.63.26-.93.4l-.23.11q-.39.18-.78.39l-.21.11c-.29.16-.59.33-.88.51l-.24.15c-.26.17-.53.35-.79.54l-.12.08-.84.65-.23.19c-.28.23-.55.47-.82.72l-.11.1-.72.72-.21.22c-.25.27-.51.56-.76.85l-.16.2-.63.8-.17.22c-.24.33-.47.66-.7,1l-.18.27c-.2.31-.41.63-.6,1a1.74,1.74,0,0,0-.11.18c-.22.37-.44.76-.65,1.16-.06.1-.11.21-.17.32-.21.4-.42.82-.63,1.25,1,2.77,2.29,5.78,3.77,7.22,0,0,9.65-18.16,47.12-11.51Z"/></g><g id="Forma_6225" data-name="Forma 6225" class="cls-6"><path class="cls-7" d="M495.89,278.36s-15.34-13.63-19.9-29.17c-2.84-9.69-4.37-12.56-7.14-17.71l-.29-.22,0,0-.33-.24-.09-.07-.41-.29-.06,0-1.25-.87,0,0-.74-.5h0a110.16,110.16,0,0,0-11.83-7c10.54,13,19,29.4,23.59,39.67C481.55,271.31,495.89,278.36,495.89,278.36ZM399.8,246.79c2.77-2.45,3.42-8.4,2-18.92,0,0,0-.07-.07-.13v0l-.12-.22h0a2.79,2.79,0,0,0-.16-.28l0-.06-.2-.34-.05-.08-.25-.41-.05-.09c-.09-.15-.19-.31-.3-.47l0-.06-.37-.56h0l-.41-.6a.18.18,0,0,1,0-.07l-.44-.61-.07-.09c-.15-.21-.32-.43-.49-.65l-.05-.07-.55-.69,0,0c-.39-.48-.82-1-1.27-1.47l0-.05-.67-.7a.23.23,0,0,1-.07-.07l-.71-.68-.06-.06c-.25-.23-.5-.46-.77-.69a54.21,54.21,0,0,1-1.23,19.25A38.13,38.13,0,0,0,397.06,266C399,269.26,396.12,250,399.8,246.79ZM519.23,548.45C498.22,536,263.9,648.66,263.9,648.66c1.84,68.55,72.71,133.24,182.23,117S587.71,658.55,589.58,619.14,540.24,560.86,519.23,548.45Zm151-193.22h0c-.2-.63-.4-1.26-.62-1.9l-.21-.61-.48-1.33-.27-.7c-.16-.42-.33-.85-.5-1.28-.09-.23-.18-.45-.28-.68-.2-.49-.41-1-.63-1.48-.07-.15-.13-.31-.2-.46q-.43-1-.9-1.95c-.07-.16-.15-.32-.23-.48l-.73-1.48c-.11-.23-.23-.46-.35-.69l-.68-1.3-.38-.71-.75-1.36c-.12-.21-.23-.42-.35-.62-.37-.66-.75-1.31-1.14-2l0,0c-.38-.65-.78-1.29-1.18-1.94-.13-.21-.26-.42-.4-.63l-.86-1.36c-.15-.24-.31-.48-.47-.72-.28-.44-.57-.87-.87-1.31l-.46-.69-1-1.5-.33-.48-1.4-2-.38-.51c-.36-.49-.71-1-1.08-1.46-.18-.24-.35-.48-.53-.71l-1-1.29-.57-.73-1-1.32-.52-.66q-.75-.94-1.53-1.89l-.19-.23-1.46-1.75-.59-.69-1.07-1.26-.67-.77-1-1.19c-.22-.26-.44-.51-.67-.76L641,309.06l-.54-.6c-.56-.62-1.13-1.23-1.7-1.85l-.63-.67L637,304.72l-.77-.81-1.05-1.08-.8-.83-1.07-1.08-.78-.79-1.35-1.34-1.06-1.05-1.22-1.18-.89-.86-1-.95-1-.9-.95-.9-1-.9-1-.89-1.3-1.19-1.43-1.28-1.08-1-.85-.75-1.12-1c-.27-.24-.54-.48-.82-.71l-1.14-1-.77-.66-1.2-1-.48-.4-2.74-2.29-.44-.36-1.32-1.08-.62-.5-1.31-1.06-.6-.47-1.36-1.08-.39-.31c-1.6-1.26-3.21-2.49-4.8-3.7l-.3-.23-1.48-1.1-.42-.31-1.48-1.1-.3-.21q-3.35-2.46-6.65-4.74l-.2-.14L587,262.46l-.21-.15q-4.18-2.83-8.2-5.36l-.14-.08-1.56-1h0c.12,1.4.24,2.82.37,4.27,0,0,12.87,40.18,18.53,61.09s27.86,51.73,34.32,56.62,13.5,79.21,20.25,95.75c1.16,4-5.2,30.68-3.78,51.48s11.59,82.94-17.5,122.17c-11.06,14.91-26.49,32.18-43.62,49.3,12-9.32,25-19.76,39.16-31.45h0c28.3-25.55,42.54-73.47,34.66-129.73S683.75,399.39,670.23,355.23Zm-419.11-104c-1.81.77-3.67,1.59-5.58,2.48l-.33.16-1.22.57-.45.22-1.21.59-.08,0c-.8.39-1.61.79-2.42,1.21l-.8.4-.93.48-.95.5-.87.46-1.2.64-.66.36-1.85,1-.61.34-1.38.78-.7.4-1.4.82-.63.36-2,1.22c-48.39,29.07-97.19,61.4-89.57,162q.33,4.41.6,8.59h0V435c.21,3.15.39,6.22.56,9.19,3.77-10.82,8.72-23.14,14.61-33.71,14.25-25.55,61.09-67,69.67-98.49,9.33-34.24,29.51-60.4,29.51-60.4s0-.23-.07-.35Z"/></g><g id="Forma_6207" data-name="Forma 6207" class="cls-8"><path class="cls-9" d="M374.75,456.13C372.66,471.49,361,489.76,361,489.76l3.78,1.37s5.85-3.37,13-28.82c7.76-27.49-5.84-69.67-5.84-69.67C375.18,405,376.84,440.77,374.75,456.13Zm-11.67-85.8s20.26-16.21,22.65-43.58-1.72-45-1.72-45S386.19,338.45,363.08,370.33ZM163.35,458.19c1.19-30.34,12.46-33.86,19.56-51.14,0,0-24.72,23.58-24.37,47s7.62,63,24.71,79.28C183.25,533.35,161.61,502.2,163.35,458.19ZM205.56,335s72.29-30.79,66.23-57.31C271.79,277.67,259.69,309,205.56,335Zm217.58-55.25s-16.89,27.18.34,71.73C423.48,351.46,415.55,303.63,423.14,279.73Zm201.45,140c-8.73-13.56-24.05-20.9-36-50.45,0,0,3.88,26,20.94,42.21s30.75,33.95,15,79C626.76,485.51,646.12,453.22,624.59,419.75Zm-.13,70.76a1.93,1.93,0,0,0-.22.62C624.32,490.92,624.39,490.72,624.46,490.51ZM475.3,312.68c50.38-16.65,82.69-2.17,92.55,3.47C510.66,281.07,475.3,312.68,475.3,312.68Zm-47.36,75.15s-16.25,53.67-5.49,73.1,28.14,36.38,28.14,36.38l1.38-4.12S430,467.84,427.26,456.47,419.82,427.8,427.94,387.83Zm143.11-69.66a35.59,35.59,0,0,0-3.2-2C568.91,316.8,570,317.47,571.05,318.17Z"/></g><g id="Forma_6200_copia" data-name="Forma 6200 copia" class="cls-10"><path class="cls-7" d="M333.54,384.09c-18.56-17.83-35.8-19.06-57.8-12.56-22.31,6.54-46.76,25.84-78.64,51.35-9.74,8.55-14.6,22.62-14.17,38.62s5.89,33.82,13.75,48.82c17.5,30.77,57.21,47.41,100,30.63,21.35-8.17,45.09-28.62,55.33-59.65,5.37-15.18,8.14-32.19,6.13-48.79S348.91,399.39,333.54,384.09ZM598,424.61c-14.41-12.32-27-24.11-39.57-33.28s-24.84-15.87-36.31-19.49c-23.38-6.92-40.29-5.25-57.06,13.28-14.2,15.83-21.6,32.42-24.28,49.32a117.21,117.21,0,0,0,3.28,49.66c4.31,15.69,11.82,28.91,21.62,38.73A84.27,84.27,0,0,0,498.34,543c45.81,14.3,83.84,1.43,98-29.41C609.93,483.35,615.87,441,598,424.61Z"/></g><g id="Forma_6202" data-name="Forma 6202"><path class="cls-11" d="M575.51,607.13c-10.25-52.61-54.17-54.43-85.79-83.39s-39.86-50.11-87.86-50.11c-28.59,0-49.85,11.05-84.42,46.33s-87.11,44.37-89.57,85.11,61.67,153.06,174,153.06S585.77,659.74,575.51,607.13Z"/></g><g id="Forma_6297" data-name="Forma 6297"><path class="cls-12" d="M575.51,607.13c-10.25-52.61-54.17-54.43-85.79-83.39s-39.86-50.11-87.86-50.11c-28.59,0-49.85,11.05-84.42,46.33s-87.11,44.37-89.57,85.11c-.58,9.54,2.49,23,9,38,2.61-16.67,10.41-38.62,32.88-47.64,38.42-15.42,42.9-36.38,42.9-36.38s83.66-71.14,168.51-12.69,59,38.43,59,38.43S567.7,596,568.45,653C575.51,636.37,578.08,620.31,575.51,607.13Z"/></g><g id="Forma_6203" data-name="Forma 6203"><path class="cls-13" d="M548.4,583.79c-11.21-9.23-26.55-11.89-45.3-32.6S446.93,515.5,401.17,515.5s-73,16.33-89.57,34-22.38,27.41-41.52,37.75-16.82,20.25-16.82,20.25-1.18-7.59,39.81-19.22c30.56-8.66,18-49.07,110.16-51.13,75.46-1.68,79.31,26.3,107.42,40.5s34.37,9.87,48.73,29.51C559.38,607.13,559.61,593,548.4,583.79Z"/></g><g id="Elipse_6214" data-name="Elipse 6214"><path class="cls-14" d="M365.2,605.53c-1.44,0-2.5,1.55-2.39,3.42s1.38,3.36,2.81,3.33,2.51-1.56,2.39-3.42S366.64,605.5,365.2,605.53Z"/></g><g id="Elipse_6214_copia" data-name="Elipse 6214 copia"><ellipse class="cls-14" cx="342.42" cy="595.86" rx="2.59" ry="3.39" transform="translate(-72.26 47.83) rotate(-7.23)"/></g><g id="Elipse_6214_copia_2" data-name="Elipse 6214 copia 2"><path class="cls-14" d="M323,602.09c-1.44,0-2.51,1.56-2.39,3.43s1.37,3.36,2.81,3.33,2.51-1.56,2.39-3.42S324.42,602.07,323,602.09Z"/></g><g id="Elipse_6214_copia_3" data-name="Elipse 6214 copia 3"><path class="cls-14" d="M342.21,615.13c-1.44,0-2.51,1.56-2.39,3.43s1.37,3.36,2.81,3.33,2.5-1.56,2.39-3.42S343.64,615.11,342.21,615.13Z"/></g><g id="Elipse_6214_copia_4" data-name="Elipse 6214 copia 4"><path class="cls-14" d="M450.53,605.53c-1.43,0-2.69,1.46-2.81,3.33s.95,3.4,2.39,3.42,2.69-1.46,2.81-3.33S452,605.55,450.53,605.53Z"/></g><g id="Elipse_6214_copia_4-2" data-name="Elipse 6214 copia 4"><path class="cls-14" d="M473.53,592.48c-1.44,0-2.7,1.47-2.82,3.34s1,3.4,2.39,3.42,2.7-1.47,2.81-3.33S475,592.51,473.53,592.48Z"/></g><g id="Elipse_6214_copia_4-3" data-name="Elipse 6214 copia 4"><path class="cls-14" d="M492.74,602.09c-1.43,0-2.69,1.47-2.81,3.34s1,3.4,2.39,3.42,2.7-1.47,2.81-3.33S494.18,602.12,492.74,602.09Z"/></g><g id="Elipse_6214_copia_4-4" data-name="Elipse 6214 copia 4"><path class="cls-14" d="M473.53,615.13c-1.44,0-2.7,1.47-2.82,3.34s1,3.4,2.39,3.42,2.7-1.47,2.81-3.33S475,615.16,473.53,615.13Z"/></g><g id="Forma_6213" data-name="Forma 6213" class="cls-15"><path class="cls-16" d="M410.78,569.38l-11.67.34s2.48,80.44,3.44,89.23S411,660.31,410.78,569.38Zm-8.92,166.79c-68.37,0-129.46-50.48-157.46-77.73,25.64,46.46,80.13,99.69,157.46,99.69,85.13,0,146.86-56.52,167.29-106.79C542.86,677.22,475,736.17,401.86,736.17Z"/></g><g id="Forma_6204" data-name="Forma 6204"><path class="cls-17" d="M400.12,497.31c-47.88,0-57.9,24.09-54.19,44.63s20,26.78,20,26.78c12.58,17.85,33.78,17.48,33.78,17.48,31.19,0,37.49-19.34,37.49-19.34s19.14.13,25.24-24.55C470.17,511.23,448,497.31,400.12,497.31Z"/></g><g id="Forma_6208" data-name="Forma 6208"><path class="cls-18" d="M440.21,552.35c-7-2.36-3.45-3.87-3.34-11.53.16-10.88-15.45-14-18.19,0-1.78,9.09,5.27,22.74,18.17,27a8.66,8.66,0,0,0,.39-.95s16.49.11,23.74-19.63C455.68,551.27,448.13,555,440.21,552.35ZM370.8,539.71c-3.94,7.73,5.36,11.67-5.2,15.25-6,2-12.83-1.79-17.53-5.44a34.68,34.68,0,0,0,17.9,19.2c.4.56.8,1.1,1.21,1.62,13.43-2.57,20.56-13,21.07-24.68C388.84,532,374.74,532,370.8,539.71Zm33-11.53c-.85,6.32-2.53,41.28-3.3,58,1.85,0,3.61-.11,5.29-.26.79-18,.95-55.47.61-57.38C406,526.29,404.67,521.93,403.83,528.18Z"/></g><g id="Forma_6210" data-name="Forma 6210"><path class="cls-19" d="M400.12,497.31c-47.88,0-57.9,24.09-54.19,44.63a41.52,41.52,0,0,0,1.38,5.49c.9-.63,2.08-2.1,3.07-5.49,1.9-6.46,10.61-29.84,49.37-30.13s57.12,13.67,58.65,26.78c.35,3,1.82,4.26,3.9,4.43l.18-.71C470.17,511.23,448,497.31,400.12,497.31Z"/></g><g id="Forma_6210-2" data-name="Forma 6210"><path class="cls-20" d="M362.26,521.07c2.44,3.25,11.36-1.34,8.21-4.84C368.44,514,359.82,517.83,362.26,521.07Zm53.62-11.94c-4.3-1.17-25.07-3-36.78,3-5.55,2.84,2.09,4.83,2.09,4.83s20.85-5.4,32.82-2.63c7.11,1.65,8.8,1.81,8.7-1.12S420.18,510.3,415.88,509.13Z"/></g><g id="Forma_6205" data-name="Forma 6205"><path class="cls-21" d="M193.18,244.77c-34.1,20.26-47.37,53.4-47.37,53.4S96.44,311.3,87.54,355.28s14.29,85.67,14.4,106.05-1.69,26,9.68,29.28,29-25.05,34.43-76.41,37-68.33,58.5-101.06,27.71-57.43,59.39-66.76C263.94,246.38,227.29,224.5,193.18,244.77Z"/></g><g id="Forma_6227" data-name="Forma 6227"><path class="cls-22" d="M146.39,296.82c-.39.87-.58,1.35-.58,1.35a94.27,94.27,0,0,0-18.4,7.68c-20.35,43.43-18.74,83.22-18.74,83.22,14.14-60.95,37.15-90.56,37.15-90.56Zm110.85-53.73c-9.84.34-27.11,5.47-42.31,33C192.1,317.55,180.81,332,166.3,347.42s-30.19,39.74-34.48,87.4c-3.63,40.22-12.78,51.26-20.51,55.7l.31.09c11.37,3.24,29-25.05,34.43-76.41s37-68.33,58.5-101.06,27.71-57.43,59.39-66.76A62.1,62.1,0,0,0,257.24,243.09Z"/></g><g id="Forma_6206" data-name="Forma 6206" class="cls-23"><path class="cls-24" d="M164.56,306.61c-16,29.22-28.15,32.06-44.82,72.56s-10.62,67.56-10.62,67.56,6.95-54.34,32.12-86,30.7-48.79,46.16-74,27.27-34.35,27.27-34.35S195,251.06,164.56,306.61Z"/></g><g id="Forma_6205-2" data-name="Forma 6205"><path class="cls-21" d="M713.72,362.5c-5.55-44.53-53.78-61.35-53.78-61.35s-10.73-34-43.21-56.83-70.68-3.74-70.68-3.74c30.89,11.7,35.21,36.79,54.18,71s49.14,53.57,50.7,105.2,17,81.17,28.56,78.79,10.21-8.14,11.86-28.46S719.27,407,713.72,362.5Z"/></g><g id="Forma_6227-2" data-name="Forma 6227"><path class="cls-22" d="M663.57,438.46c-.68-47.84-14.48-73.3-27.79-89.75S612.31,317,592.68,274c-13.08-28.64-29.91-35.06-39.7-36.14a62.26,62.26,0,0,0-6.93,2.77c30.89,11.7,35.21,36.79,54.18,71s49.14,53.57,50.7,105.2,17,81.17,28.56,78.79l.32-.07C672.43,490.55,664.14,478.84,663.57,438.46ZM677.7,310.2a94.27,94.27,0,0,0-17.76-9.05s-.16-.49-.48-1.39l.44,1.73s20.71,31.26,30.2,93.1C690.1,394.59,694.72,355,677.7,310.2Z"/></g><g id="Forma_6206-2" data-name="Forma 6206" class="cls-25"><path class="cls-24" d="M679.81,383.89c-13.56-41.64-25.44-45.4-39.21-75.74-26.18-57.69-45.87-57.79-45.87-57.79s11.08,10,24.6,36.31,17.72,43.81,40.43,77.24,25.54,88.15,25.54,88.15S693.37,425.53,679.81,383.89Z"/></g></svg>