<svg id="Assets" xmlns="http://www.w3.org/2000/svg" viewBox="0 0 800 800"><defs><style>.cls-1{fill:#e59167;}.cls-2{fill:#d4794e;}.cls-3{fill:#ef8c8b;}.cls-4{fill:#cb716f;}.cls-5{fill:#ffa4a2;}.cls-6{fill:#ffd0b0;}.cls-7{fill:#ffcba3;}.cls-8{opacity:0.36;}.cls-9{fill:#995027;}.cls-10{fill:#c46b41;}.cls-11{opacity:0.51;}.cls-12{fill:#e0a280;}.cls-13{fill:#693737;}.cls-14{fill:#4e2626;}.cls-15{fill:#331212;}.cls-16{fill:#1d0502;}.cls-17{fill:#c19b9b;}.cls-18{opacity:0.86;}.cls-19{fill:#fff;}</style></defs><g id="Forma_6726" data-name="Forma 6726"><path class="cls-1" d="M168.84,195.27c-50-34.47-84.44-31.83-127.71,36.83S4.78,379.75,30.8,431.76s160.33,113.56,225.82,14.12l14.81-201.39S218.81,229.74,168.84,195.27Z"/></g><g id="Forma_6728" data-name="Forma 6728"><path class="cls-2" d="M157.82,219.3c-30.15-47-84.15-54.33-132.53,47.57C4.21,311.29,7.87,373.12,26.56,422.65q2,4.68,4.24,9.11c17.56,35.09,84.4,74.52,146.15,65.92l69.69-229.55S181.69,256.47,157.82,219.3Z"/></g><g id="Forma_6729" data-name="Forma 6729"><path class="cls-3" d="M161.27,278.57c-18.88-31.11-14-56.08-40.28-79.86S-5.44,248.05,22.54,382.19s158.3,104.94,168.68,75.39l17.21-152.84S180.15,309.69,161.27,278.57Z"/></g><g id="Forma_6730" data-name="Forma 6730"><path class="cls-4" d="M209.12,310.93S157.65,328,108.6,272.38c0,0,13.76,49.06,84,56.11,0,0-44.34,26.35-109.13,22.37,0,0,74,24.29,147.68-25.47Z"/></g><g id="Forma_6731" data-name="Forma 6731"><path class="cls-5" d="M62.13,260.33s12.18-18.54,24.44-22.72c0,0,27,44.77,76.42,59.55,0,0-28.47-36.54-42-64.71s-44.85-25.51-69.88,16.18-28.53,119.72,5.17,167.3c0,0-26.3-61.93-14.81-114.64,0,0,31.37,36.58,105.69,31C147.16,332.28,72.11,297.94,62.13,260.33Z"/></g><g id="Forma_6734" data-name="Forma 6734"><path class="cls-1" d="M151.63,219.36C139.1,168.88,99,183.22,99,183.22s26.83,1.48,38.21,32.7c7.2,19.76,21.17,104.32,75.39,88.13L215,295.1S172.59,303.83,151.63,219.36Z"/></g><g id="Forma_6726-2" data-name="Forma 6726"><path class="cls-1" d="M758.87,232.1c-43.27-68.66-77.74-71.3-127.71-36.83s-102.59,49.22-102.59,49.22l14.81,201.39c65.49,99.44,199.8,37.89,225.82-14.12S802.14,300.77,758.87,232.1Z"/></g><g id="Forma_6728-2" data-name="Forma 6728"><path class="cls-2" d="M774.71,266.87C726.33,165,672.33,172.33,642.18,219.3c-23.87,37.17-88.82,48.83-88.82,48.83l69.69,229.55c61.75,8.6,128.59-30.83,146.15-65.92q2.22-4.42,4.23-9.11C792.13,373.12,795.79,311.29,774.71,266.87Z"/></g><g id="Forma_6729-2" data-name="Forma 6729"><path class="cls-3" d="M679,198.71c-26.28,23.78-21.4,48.75-40.28,79.86s-47.16,26.17-47.16,26.17l17.21,152.84c10.38,29.55,140.7,58.75,168.68-75.39S705.28,174.93,679,198.71Z"/></g><g id="Forma_6730-2" data-name="Forma 6730"><path class="cls-4" d="M607.41,328.49c70.23-7.05,84-56.11,84-56.11-49,55.6-100.52,38.55-100.52,38.55l-22,14.46c73.69,49.76,147.68,25.47,147.68,25.47C651.74,354.84,607.41,328.49,607.41,328.49Z"/></g><g id="Forma_6731-2" data-name="Forma 6731"><path class="cls-5" d="M748.89,248.63c-25-41.69-56.36-44.36-69.88-16.18s-42,64.71-42,64.71c49.42-14.78,76.42-59.55,76.42-59.55,12.26,4.18,24.44,22.72,24.44,22.72-10,37.61-85,71.95-85,71.95,74.31,5.59,105.68-31,105.68-31C770,354,743.72,415.93,743.72,415.93,777.42,368.35,773.92,290.31,748.89,248.63Z"/></g><g id="Forma_6734-2" data-name="Forma 6734"><path class="cls-1" d="M648.37,219.36C627.41,303.83,585,295.1,585,295.1l2.41,8.95c54.22,16.19,68.19-68.37,75.39-88.13,11.38-31.22,38.21-32.7,38.21-32.7S660.9,168.88,648.37,219.36Z"/></g><g id="Forma_6720_copia" data-name="Forma 6720 copia"><path class="cls-1" d="M694.84,504.4C673,488.52,666,471.82,644.58,418.68,628.32,378.38,618,283.17,564,238c-74.64-62.59-253.4-58.57-323.24,0-53.92,45.22-64.29,140.43-80.55,180.73C138.8,471.82,131.87,488.52,110,504.4c0,0,10.65,11.1,22,9.29,0,0-24.57,43.64-15.49,55.08,3.77,4.75,17.55-2.41,17.55-2.41S127.71,612.11,195,666.88c156.1,127,257.34,128.16,414.81,0,67.3-54.77,60.94-100.52,60.94-100.52s13.78,7.16,17.55,2.41c9.08-11.44-15.49-55.08-15.49-55.08C684.19,515.5,694.84,504.4,694.84,504.4Z"/></g><g id="Forma_6722_copia" data-name="Forma 6722 copia"><path class="cls-6" d="M594.67,399.4c-30.22-104-144.57-96.95-151.12-12.73s41.31,137.73-1.38,172.12H349.91c-42.69-34.39,5.18-87.91-1.37-172.12S227.63,295.41,197.41,399.4,227,551.21,227,551.21s-30.29,47.75-17.9,78.15c24.37,59.78,70.89,95.69,112,116.76,42.32,16.75,82.4,20.73,123.79,11.85,45.62-18.29,108.32-55.69,138-128.61,12.39-30.4-17.9-78.15-17.9-78.15S624.89,503.39,594.67,399.4Z"/></g><g id="Forma_6723" data-name="Forma 6723"><path class="cls-7" d="M132.35,513.69c-6.77,10.94-23.31,45.66-15.83,55.08a3.69,3.69,0,0,0,.38.41c5.54-16.83,19.58-49.08,30.94-61.34C141.82,508.17,137.25,509.54,132.35,513.69ZM240.79,238c-53.92,45.22-64.29,140.43-80.55,180.73C138.8,471.82,131.87,488.52,110,504.4c0,0-.83-.67.34.34,77-47.47,59.18-130.13,117.73-234.43,25-44.61,101.07-68.7,183-77.74C344.83,191.33,277.64,207,240.79,238ZM134.07,566c-.7,21.1,8.42,58.12,60.93,100.86q9.42,7.67,18.58,14.71c-62.3-65.45-67.11-128.31-67.11-128.31C139.33,557.58,136.77,560.55,134.07,566Z"/></g><g id="Forma_6724" data-name="Forma 6724" class="cls-8"><path class="cls-9" d="M659,551.21S647.33,694.41,428.27,752.5c-23,6.11-49.22,5.31-77.25,3.41,82.48,21.22,159.45-8.18,258.79-89,57.73-47,61.25-87.32,61.09-97.85C669.62,564.54,665.09,555.49,659,551.21Zm-1.38-38.9c15.53,20.43,24,31.64,30.47,56.64l.17-.18c8.45-10.64-12.22-49.13-15.15-54.46C665.56,510.68,658.8,511.58,657.66,512.31Zm-13.08-93.63C628.32,378.38,618,283.17,564,238c-3.16-2.65-6.52-5.18-10-7.59,18.28,19.6,38.08,45.7,45.84,73,19.56,68.78,38.34,187,94.43,201.61l.58-.57C673,488.52,666,471.82,644.58,418.68Z"/></g><g id="Forma_6720" data-name="Forma 6720"><path class="cls-10" d="M331.67,222.12s4.06,20.89,8.6,25.13c0,0,7.52-14.78,21-25.82,2.92,4.86,18.13,65.21,36.84,77.11,0,0,19.41-48,35.8-67.82,0,0,11.73,38.67,20.31,43.72C456,257.66,461.08,224,467,208.35,467,208.35,338,149.62,331.67,222.12Z"/></g><g id="Forma_6717" data-name="Forma 6717"><path class="cls-1" d="M460.07,156c-3.89-28.34-15.82,8.92-8.95,18.25,0,0-31.89-21.08-55.77-22.72-23.29-1.6-53.19,7.41-64.71,23.75s-11.35,58.58-2.07,75.39c0,0,4.7-25.88,24.44-42,0,0-6.9,44.27,28.23,89.51,0,0,8.67-37.08,37.87-73.33,0,0,5.2,32.61,23.75,57.84,0,0,5.9-51.49,22.37-60.94s26.51-5.85,26.51-5.85S464,184.37,460.07,156Z"/></g><g id="Forma_6719" data-name="Forma 6719"><path class="cls-7" d="M377.67,152.21c-19,2.53-38.29,10.7-47,23.09-11.35,16.09-11.35,57.29-2.49,74.6-.54-13,2.78-45.62,15.91-68.4C352.52,166.82,366.49,157.61,377.67,152.21Zm79.4-6c-4.42-4.65-10.37,16.43-7.09,25.78,1.49,2,3.14,4.17,4.24,5.35C454.22,177.37,453.31,157.1,457.07,146.24ZM352.88,209.73c-.77,6.88-3.63,47.27,28.36,88.47l0-.12c-6.34-23.54-12.42-107.29-12.42-107.29C361.27,195.93,356.18,203.25,352.88,209.73Zm66.44,16.34c1.14,6.09,7.09,34.27,23.54,56.64,0,0,0-.2.07-.57-5.2-14.63-17.63-66.56-17.63-66.56A24.83,24.83,0,0,0,419.32,226.07Z"/></g><g id="Forma_4735" data-name="Forma 4735" class="cls-11"><path class="cls-12" d="M457,532.69c-19.69,6.81-96.13,38.49-96.13,38.49s23.51,58,75.22,21.16C486.59,556.42,466.05,541.2,457,532.69Z"/></g><g id="Forma_4720_copia" data-name="Forma 4720 copia"><path class="cls-13" d="M458.78,533.2c-19.81-36.66-58-35.15-61.45-34.94-3.47-.21-41.65-1.72-61.46,34.94C322.61,557.76,362.2,601,397.07,601h.51C432.45,601,472,557.76,458.78,533.2Z"/></g><g id="Forma_4722_copia" data-name="Forma 4722 copia"><path class="cls-14" d="M426.14,543.65c-24.29,2.53-37,2.26-58.65,0-8.43-.87-23.6,13.25-19.11,32.61C361,590.17,379.61,601,397.07,601h.51c16.82,0,34.74-10.07,47.29-23.24C450.54,557.64,434.79,542.75,426.14,543.65Z"/></g><g id="Forma_4724" data-name="Forma 4724"><path class="cls-15" d="M358.57,563.79c-10.1,1-3.32,14.79-3.32,14.79-2-6.28,1.28-8.67,1.28-8.67-5.22,5.6,10,21,16.06,16.57,1.86,1.74,1.79,5.86,1.79,5.86C378.32,583.09,368.66,562.75,358.57,563.79Z"/></g><g id="Forma_4725" data-name="Forma 4725"><path class="cls-16" d="M362.21,564.3c-2.3.87-5.51,3.11-3.13,8.67,3,7,10.62,14.55,15.92,10.95C373.75,575.88,368.38,566.63,362.21,564.3Z"/></g><g id="Forma_4724_copia" data-name="Forma 4724 copia"><path class="cls-15" d="M433,563.79c-10.09-1-19.75,19.3-15.8,28.55,0,0-.08-4.12,1.78-5.86,6.06,4.39,21.29-11,16.06-16.57,0,0,3.27,2.39,1.28,8.67C436.34,578.58,443.12,564.83,433,563.79Z"/></g><g id="Forma_4725_copia" data-name="Forma 4725 copia"><path class="cls-16" d="M429.38,564.3c-6.17,2.33-11.54,11.58-12.79,19.62,5.3,3.6,12.93-3.94,15.92-10.95C434.89,567.41,431.68,565.17,429.38,564.3Z"/></g><g id="Forma_4728" data-name="Forma 4728"><path class="cls-13" d="M355.76,575.77c6.52,18.16,16.83,11.22,16.83,11.22C361,589.92,355.76,575.77,355.76,575.77Zm2.3-13.25c9.64-.76,18.1,18.1,18.1,18.1C367.45,557,358.06,562.52,358.06,562.52Zm76.24-.26s-13.22-3.3-18.61,19.63C415.69,581.89,421.82,564,434.3,562.26Zm-36.21,33.4s4.08-16.06,0-41.3Zm22.19-7.91c13.75,3.18,15.55-11.47,15.55-11.47C429.21,589,420.28,587.75,420.28,587.75Z"/></g><g id="Forma_4723" data-name="Forma 4723"><path class="cls-17" d="M421,516.12c-36.57-8.29-60,3.87-65.53,8.42s-3.91,7.55,3.06,5.09c22.51-7.92,44-9.19,62.47-8.66C428.73,521.19,435.55,520.14,421,516.12Z"/></g><g id="Elipse_4754" data-name="Elipse 4754" class="cls-18"><path class="cls-19" d="M388.81,518.2c-.82-1.59-5-2.24-10.23-1.21-5.72.65-9.94,4.69-8.88,6s7.35-1.49,12.36-2.31C386.75,520,389.59,519.61,388.81,518.2Z"/></g></svg>