<svg id="Assets" xmlns="http://www.w3.org/2000/svg" viewBox="0 0 800 800"><defs><style>.cls-1{fill:#dcdcdc;}.cls-2{fill:#fff;}.cls-3{fill:#c1c1c1;}.cls-4{fill:#ff878e;}.cls-5{fill:#ff9da1;}.cls-6{fill:#ff626c;}.cls-7{fill:#ffb95a;}.cls-8{fill:#e18c25;}.cls-9{fill:#ffdca9;}.cls-10{fill:#b86400;}.cls-11{fill:#e4262f;}.cls-12{fill:#ad0710;}.cls-13{fill:#ff5163;}.cls-14{fill:#55d6e4;}.cls-15{fill:#ea283a;}</style></defs><g id="Forma_2963" data-name="Forma 2963"><path class="cls-1" d="M594.92,713.18c-127.52-10.58-254.41-15.8-355-.13.23,0-6.94,8.3-9.78,17.36-3.07,9.08-1.81,18.88,10.15,22.18a29.93,29.93,0,0,0,22.58-2.19c-.25.16-3.23,11,.24,18.72,3,7.9,12.51,12.66,26.94,5a18.69,18.69,0,0,0,5.53,8.32c4.26,4,11.78,7.52,21.34,7.57s15.24-3.41,19.28-7.41a34.6,34.6,0,0,0,6.13-8.33c-.6.45,7.74,17.23,20.14,19.14,12,2.07,30.26,1,33.1-18a17.75,17.75,0,0,0,5.77,11.37c5.41,5.19,15.89,9,34.57,7.16,8.18-.8,12.56-6.27,14.91-12.3a42,42,0,0,0,2.62-12.35c.31.79,17.22,30.1,33.13,6,.24.37,10.07,5,22.2,5.07,12-.14,26.26-4.82,31.87-28.15.13.4,13,20.38,29.18,14.95,16.21-4.61,10.57-25.16,10.66-25.42.12.13,20.59,16.42,26.9,6.91C613.55,739.24,611.58,720.14,594.92,713.18Z"/></g><g id="Forma_2963_copia_2" data-name="Forma 2963 copia 2"><path class="cls-2" d="M348.05,767a50.88,50.88,0,0,1-5.19,7.61c2.89,8.76,12.88,17.74,19.64,18.78a48.43,48.43,0,0,0,5.79.67C357.77,790.39,347.91,768.08,348.05,767Zm-49.45,3.8s-5.87,2.48-8,3.12c.36,2.84,3.41,7.11,5,8.5,4.05,3.81,11.06,7.17,20,7.53C312.74,789.63,298.25,780.37,298.6,770.77ZM273,747.26a55.69,55.69,0,0,0-10,3.46c-1.41,4.54-1.92,13.8.15,18.4,2.12,5.53,7.4,9.52,15.31,8.78C269.46,770.58,266.1,762.39,273,747.26ZM240,713.05c.23,0-6.94,8.3-9.78,17.36-3.07,9.08-1.81,18.88,10.15,22.18a30.71,30.71,0,0,0,8.13,1.23c-11.47-3.44-12.66-13.08-9.63-22C244.58,713.42,258.74,710.12,240,713.05Zm214.94,48.73a50.5,50.5,0,0,1-1.38,8c7.86,12.5,16.31,15.94,21.82,14.75C469.53,784.39,457.71,772,454.89,761.78Zm126.9-26.62c.21,3.74-.7,4.85-1,6.91,5.47,4.95,18.31,11.19,22.39,9.38C594.35,750,581.86,735.23,581.79,735.16ZM402.68,769.39a39.33,39.33,0,0,1-6.91,6.57c2,6.14,4.77,16.87,26,18.23C416.25,790.63,401.26,786.24,402.68,769.39Zm142.46-23.51c-.57,2.38-3.41,4.56-4.15,6.57,5.59,9.42,17.29,16.19,24.68,15.57C556,764.15,545.23,746.16,545.14,745.88Zm-56.71,24.2c-.35.54-1.37,5-1.72,5.53,3,.87,10.89,4.82,18.43,4.58C494.57,776.46,488.58,770.31,488.43,770.08Z"/></g><g id="Forma_2966" data-name="Forma 2966"><path class="cls-3" d="M594.92,713.18c-47.73-4-95.38-7.17-141.59-8.82l-201.06,9.36-2.07,4.5s119.44,104.9,357.15,5.89A24.85,24.85,0,0,0,594.92,713.18Z"/></g><g id="Rectángulo_2962_copia" data-name="Rectángulo 2962 copia"><path class="cls-4" d="M669.73,459c-25.81-183.1-90.27-262.33-271.37-263.42H397C215.88,196.68,152.41,275.92,128.87,459c-9.39,63.42-102.94,293.25,272.22,293.25h.05C776.31,752.26,679.9,522.42,669.73,459Z"/></g><g id="Forma_2968_copia_4" data-name="Forma 2968 copia 4"><path class="cls-5" d="M211.25,425.07C184.71,437,174,417.76,174,417.76,187.34,455.14,211.25,425.07,211.25,425.07ZM163.06,573.48c19.74,52.17,52.49,9.24,52.49,9.24C178.59,600.18,163.06,573.48,163.06,573.48Zm95.6-18.32c-27.4,9.73-36.5-10.26-36.5-10.26C232.44,583.22,258.66,555.16,258.66,555.16Zm-59.41-80c-40.94,14.55-54.54-15.32-54.54-15.32C160.07,517.1,199.25,475.16,199.25,475.16ZM268,626c-26.54,11.89-37.21-7.32-37.21-7.32C244.05,656,268,626,268,626Zm-22.6,70.61c19.74,52.16,52.49,9.23,52.49,9.23C260.89,723.27,245.36,696.58,245.36,696.58Zm-42.91-39.3c10.28,38.32,36.5,10.25,36.5,10.25C211.55,677.27,202.45,657.28,202.45,657.28ZM171.87,537.87c-27.4,9.74-36.5-10.26-36.5-10.26C145.65,565.93,171.87,537.87,171.87,537.87ZM136.41,613.8c15.52,57.86,55.11,15.48,55.11,15.48C150.15,644,136.41,613.8,136.41,613.8Z"/></g><g id="Forma_2968_copia_5" data-name="Forma 2968 copia 5"><path class="cls-6" d="M636.51,417.76s-10.67,19.2-37.21,7.31C599.3,425.07,623.21,455.14,636.51,417.76ZM588.39,544.9s-9.1,20-36.5,10.26C551.89,555.16,578.11,583.22,588.39,544.9Zm50.29-7s26.22,28.06,36.5-10.26C675.18,527.61,666.08,547.61,638.68,537.87ZM611.3,475.16s39.19,41.94,54.54-15.32C665.84,459.84,652.24,489.71,611.3,475.16Zm36.19,98.32S632,600.18,595,582.72C595,582.72,627.75,625.65,647.49,573.48ZM512.7,705.81s32.75,42.93,52.5-9.23C565.2,696.58,549.67,723.27,512.7,705.81ZM619,629.28s39.59,42.38,55.11-15.48C674.14,613.8,660.4,644,619,629.28ZM571.6,667.53s26.22,28.07,36.5-10.25C608.1,657.28,599,677.27,571.6,667.53ZM542.6,626s23.9,30.06,37.2-7.32C579.8,618.65,569.13,637.86,542.6,626Z"/></g><g id="Rectángulo_2962_copia_4" data-name="Rectángulo 2962 copia 4"><path class="cls-6" d="M669.73,459c-22-156.09-72.09-236.69-198.57-257.75C582.47,227.53,628.22,307.61,649,454.86c10.18,63.41,106.58,293.26-268.58,293.26h-.06c-43.48,0-80.66-3.09-112.41-8.65,36,8.15,79.83,12.79,133.16,12.79h.05C776.31,752.26,679.9,522.42,669.73,459Z"/></g><g id="Rectángulo_2962_copia_3" data-name="Rectángulo 2962 copia 3"><path class="cls-5" d="M505.53,209c-30.22-8.78-65.62-13.15-107.17-13.4H397C215.88,196.68,152.41,275.92,128.87,459c-8.14,55-79.44,234.79,145.6,281.88-195.55-54.59-129.23-223.13-121.4-276,23.55-183.09,87-262.34,268.11-263.42h1.38C453.49,201.65,481,204.12,505.53,209Z"/></g><g id="Forma_2966-2" data-name="Forma 2966"><path class="cls-4" d="M356.69,221.69s-29.32-11-42.87-37.35-30.21-22.86-26.28-1.38a104.92,104.92,0,0,1-22.13-24.9c-9.48-15.17-34.56-3.48-21.44,30.43a70.06,70.06,0,0,0,12.45,20.75c-4.91-4.94-12.22-4.52-25.93-19.36s-44.93,20.87,6.57,44.25,108.66,39.37,122.4,20.4S356.69,221.69,356.69,221.69Z"/></g><g id="Forma_2966_copia_2" data-name="Forma 2966 copia 2"><path class="cls-5" d="M264,156.08c-10.33-12-32.47.12-20,32.41a72.38,72.38,0,0,0,11.26,19.38c4.1,3.45,7.07,3.43,9.49,5.86A69.92,69.92,0,0,1,252.27,193C242.6,168,253.66,155.09,264,156.08Zm-32.52,34.8-.94-1c-14.29-15.38-56.85,24,30.77,55.32C230.4,226.05,203.07,196.69,231.43,190.88Zm55.76-8.27a53.31,53.31,0,0,0,9,7.61c-2.11-11.59-1.47-21.22,7.56-19.94C289.72,159.76,285.64,167.28,287.19,182.61Z"/></g><g id="Forma_2957_copia" data-name="Forma 2957 copia"><path class="cls-7" d="M519.21,608.61c-5.18-45.67-47.67-38.44-59.13-48.76-29.25-49.47-63.45-46-63.45-46h0c-3.85,0-39.71,1.71-63.1,46-11.46,10.32-53.95,3.09-59.13,48.76-4.79,42.23,29.26,128.75,122.23,129H397C490,737.36,524,650.84,519.21,608.61Z"/></g><g id="Forma_2957_copia_4" data-name="Forma 2957 copia 4"><path class="cls-8" d="M519.21,608.61C518,598.29,515,590.68,510.77,585a57.77,57.77,0,0,1,3.25,14c4.79,42.24-29.25,128.76-122.23,129h-.35c-52.31-.13-86-27.58-104.55-59.08C304,704.16,339,737.44,396.63,737.58H397C490,737.36,524,650.84,519.21,608.61Z"/></g><g id="Forma_2957_copia_3" data-name="Forma 2957 copia 3"><path class="cls-9" d="M396.63,513.86h0c-3.85,0-39.71,1.71-63.1,46-11.46,10.32-53.95,3.09-59.13,48.76-3.55,31.27,14.2,86.82,61.39,113.64C297.66,693.52,283.28,645,286.5,616.56c5.18-45.66,47.67-38.44,59.13-48.75,23.39-44.27,59.25-45.94,63.1-46h0s10.56-1.07,25,6.46C413.51,512.14,396.63,513.86,396.63,513.86Zm73.54,50.65c.68,1.08,1.35,2.17,2,3.3,6.06,5.45,20.81,6,34.12,12.07C495.61,569.77,480.74,567.56,470.17,564.51Z"/></g><g id="Forma_2959" data-name="Forma 2959"><path class="cls-10" d="M367,549.48c-10.07,8,15.28,21.44,15.28,21.44S377.08,541.48,367,549.48Z"/></g><g id="Forma_2959_copia" data-name="Forma 2959 copia"><path class="cls-10" d="M433.52,549.48c-10.07-8-15.28,21.44-15.28,21.44S443.6,557.49,433.52,549.48Z"/></g><g id="Forma_2956" data-name="Forma 2956"><path class="cls-11" d="M368.11,511.1c-23.41,10.45-27.95,24.61-45.95,38.72s-29.59,7.47-47.76,22.83c-10.71,9.05-2.27,31.41,20.4,28.35,16.41-2.21,37-7,77.45-69.16,0,0,8.85-14.29,25.42-18C397.67,513.86,391.51,500.64,368.11,511.1Z"/></g><g id="Forma_2956_copia_2" data-name="Forma 2956 copia 2"><path class="cls-12" d="M394.42,510.18C378.16,514,369.49,528,369.49,528,329.06,590.18,308.44,595,292,597.2c-9.09,1.22-15.89-1.64-20.09-6.1,3.54,6.47,11.37,11.45,22.86,9.9,16.41-2.21,37-7,77.45-69.16,0,0,8.85-14.29,25.42-18A11.21,11.21,0,0,0,394.42,510.18Z"/></g><g id="Forma_2959-2" data-name="Forma 2959"><path class="cls-4" d="M285.81,573.34c-2.61,5,1.66,4.92,3.11,3.8s2-2.62.69-4.15S285.81,573.34,285.81,573.34Zm34.58-15.22a169.83,169.83,0,0,0-23.86,9.34s-3.12,1.65-2.42,3.11,3.8-.34,3.8-.34a182.75,182.75,0,0,1,23.52-9c15.37-4.89,25.24-25.94,25.24-25.94S331.16,554.92,320.39,558.12Z"/></g><g id="Forma_2963-2" data-name="Forma 2963"><path class="cls-1" d="M594.92,713.18c-127.52-10.58-254.41-15.8-355-.13.23,0-6.94,8.3-9.78,17.36-3.07,9.08-1.81,18.88,10.15,22.18a29.93,29.93,0,0,0,22.58-2.19c-.25.16-3.23,11,.24,18.72,3,7.9,12.51,12.66,26.94,5a18.69,18.69,0,0,0,5.53,8.32c4.26,4,11.78,7.52,21.34,7.57s15.24-3.41,19.28-7.41a34.6,34.6,0,0,0,6.13-8.33c-.6.45,7.74,17.23,20.14,19.14,12,2.07,30.26,1,33.1-18a17.75,17.75,0,0,0,5.77,11.37c5.41,5.19,15.89,9,34.57,7.16,8.18-.8,12.56-6.27,14.91-12.3a42,42,0,0,0,2.62-12.35c.31.79,17.22,30.1,33.13,6,.24.37,10.07,5,22.2,5.07,12-.14,26.26-4.82,31.87-28.15.13.4,13,20.38,29.18,14.95,16.21-4.61,10.57-25.16,10.66-25.42.12.13,20.59,16.42,26.9,6.91C613.55,739.24,611.58,720.14,594.92,713.18Z"/></g><g id="Forma_2963_copia_2-2" data-name="Forma 2963 copia 2"><path class="cls-2" d="M298.6,770.77s-5.87,2.48-8,3.12c.36,2.84,3.41,7.11,5,8.5,4.05,3.81,11.06,7.17,20,7.53C312.74,789.63,298.25,780.37,298.6,770.77ZM240,713.05c.23,0-6.94,8.3-9.78,17.36-3.07,9.08-1.81,18.88,10.15,22.18a30.71,30.71,0,0,0,8.13,1.23c-11.47-3.44-12.66-13.08-9.63-22C244.58,713.42,258.74,710.12,240,713.05Zm162.73,56.34a39.33,39.33,0,0,1-6.91,6.57c2,6.14,4.77,16.87,26,18.23C416.25,790.63,401.26,786.24,402.68,769.39ZM273,747.26a55.69,55.69,0,0,0-10,3.46c-1.41,4.54-1.92,13.8.15,18.4,2.12,5.53,7.4,9.52,15.31,8.78C269.46,770.58,266.1,762.39,273,747.26Zm75,19.71a50.88,50.88,0,0,1-5.19,7.61c2.89,8.76,12.88,17.74,19.64,18.78a48.43,48.43,0,0,0,5.79.67C357.77,790.39,347.91,768.08,348.05,767Zm233.74-31.81c.21,3.74-.7,4.85-1,6.91,5.47,4.95,18.31,11.19,22.39,9.38C594.35,750,581.86,735.23,581.79,735.16Zm-36.65,10.72c-.57,2.38-3.41,4.56-4.15,6.57,5.59,9.42,17.29,16.19,24.68,15.57C556,764.15,545.23,746.16,545.14,745.88Zm-90.25,15.9a50.5,50.5,0,0,1-1.38,8c7.86,12.5,16.31,15.94,21.82,14.75C469.53,784.39,457.71,772,454.89,761.78Zm33.54,8.3c-.35.54-1.37,5-1.72,5.53,3,.87,10.89,4.82,18.43,4.58C494.57,776.46,488.58,770.31,488.43,770.08Z"/></g><g id="Forma_2966-3" data-name="Forma 2966"><path class="cls-3" d="M594.92,713.18c-47.73-4-95.38-7.17-141.59-8.82l-201.06,9.36-2.07,4.5s119.44,104.9,357.15,5.89A24.85,24.85,0,0,0,594.92,713.18Z"/></g><g id="Rectángulo_2962_copia-2" data-name="Rectángulo 2962 copia"><path class="cls-13" d="M669.73,459c-25.81-183.1-90.27-262.33-271.37-263.42H397C215.88,196.68,152.41,275.92,128.87,459c-9.39,63.42-102.94,293.25,272.22,293.25h.05C776.31,752.26,679.9,522.42,669.73,459Z"/></g><g id="Forma_3000_copia" data-name="Forma 3000 copia"><path class="cls-14" d="M291.69,336.48c-77-1.68-96.21,77.27-116.87,129.32s0,178.09,142.46,108.23c0,0,56.88-31.29,55-133.12C372.25,440.91,368.72,338.17,291.69,336.48Zm327.1,127.94c-20.66-52.06-39.84-131-116.87-129.32s-80.57,104.42-80.57,104.42c-1.9,101.84,55,133.13,55,133.13C618.84,642.5,639.45,516.48,618.79,464.42Z"/></g><g id="Forma_2968_copia_4-2" data-name="Forma 2968 copia 4"><path class="cls-5" d="M158.68,597.07c16.61,43.91,44.17,7.78,44.17,7.78C171.75,619.54,158.68,597.07,158.68,597.07Zm28.24-199c-23.06,8.2-30.72-8.63-30.72-8.63C164.85,421.66,186.92,398,186.92,398Zm73.86,203.79c-22.34,10-31.31-6.16-31.31-6.16C240.66,627.14,260.78,601.83,260.78,601.83ZM166.09,567.1c-23.06,8.19-30.72-8.63-30.72-8.63C144,590.72,166.09,567.1,166.09,567.1Zm5.41-43.44c-34.46,12.25-45.91-12.9-45.91-12.9C138.52,559,171.5,523.66,171.5,523.66ZM136.24,631c13.06,48.7,46.39,13,46.39,13C147.81,656.41,136.24,631,136.24,631ZM247,641.25c-22.34,10-31.32-6.16-31.32-6.16C226.83,666.55,247,641.25,247,641.25Zm-19,59.42c16.61,43.91,44.18,7.78,44.18,7.78C241,723.14,227.94,700.67,227.94,700.67Zm-36.11-33.08c8.65,32.26,30.72,8.64,30.72,8.64C199.49,684.42,191.83,667.59,191.83,667.59Z"/></g><g id="Forma_2968_copia_5-2" data-name="Forma 2968 copia 5"><path class="cls-15" d="M617.58,427.91s26.23,28.07,36.51-10.25C654.09,417.66,645,437.65,617.58,427.91ZM595,582.72s32.75,42.93,52.49-9.24C647.49,573.48,632,600.18,595,582.72Zm43.68-44.85s26.22,28.06,36.5-10.26C675.18,527.61,666.08,547.61,638.68,537.87Zm-4.59-191s-10.67,19.21-37.21,7.32C596.88,354.19,620.79,384.26,634.09,346.87Zm-3,153.93s23.91,30.06,37.21-7.32C668.32,493.48,657.65,512.69,631.11,500.8ZM571.6,667.53s26.22,28.07,36.5-10.25C608.1,657.28,599,677.27,571.6,667.53ZM619,629.28s39.59,42.38,55.11-15.48C674.14,613.8,660.4,644,619,629.28ZM599.11,269.66s-13.6,29.88-54.54,15.33C544.57,285,583.75,326.92,599.11,269.66ZM512.7,705.81s32.75,42.93,52.5-9.23C565.2,696.58,549.67,723.27,512.7,705.81ZM542.6,626s23.9,30.06,37.2-7.32C579.8,618.65,569.13,637.86,542.6,626Z"/></g><g id="Rectángulo_2962_copia_4-2" data-name="Rectángulo 2962 copia 4"><path class="cls-15" d="M669.73,459c-22-156.09-72.09-236.69-198.57-257.75C582.47,227.53,628.22,307.61,649,454.86c10.18,63.41,106.58,293.26-268.58,293.26h-.06c-43.48,0-80.66-3.09-112.41-8.65,36,8.15,79.83,12.79,133.16,12.79h.05C776.31,752.26,679.9,522.42,669.73,459Z"/></g><g id="Rectángulo_2962_copia_3-2" data-name="Rectángulo 2962 copia 3"><path class="cls-5" d="M505.53,209c-30.22-8.78-65.62-13.15-107.17-13.4H397C215.88,196.68,152.41,275.92,128.87,459c-8.14,55-79.44,234.79,145.6,281.88-195.55-54.59-129.23-223.13-121.4-276,23.55-183.09,87-262.34,268.11-263.42h1.38C453.49,201.65,481,204.12,505.53,209Z"/></g><g id="Forma_2966-4" data-name="Forma 2966"><path class="cls-13" d="M356.69,221.69s-29.32-11-42.87-37.35-30.21-22.86-26.28-1.38a104.92,104.92,0,0,1-22.13-24.9c-9.48-15.17-34.56-3.48-21.44,30.43a70.06,70.06,0,0,0,12.45,20.75c-4.91-4.94-12.22-4.52-25.93-19.36s-44.93,20.87,6.57,44.25,108.66,39.37,122.4,20.4S356.69,221.69,356.69,221.69Z"/></g><g id="Forma_2966_copia_2-2" data-name="Forma 2966 copia 2"><path class="cls-5" d="M264,156.08c-10.33-12-32.47.12-20,32.41a72.38,72.38,0,0,0,11.26,19.38c4.1,3.45,7.07,3.43,9.49,5.86A69.92,69.92,0,0,1,252.27,193C242.6,168,253.66,155.09,264,156.08Zm-32.52,34.8-.94-1c-14.29-15.38-56.85,24,30.77,55.32C230.4,226.05,203.07,196.69,231.43,190.88Zm55.76-8.27a53.31,53.31,0,0,0,9,7.61c-2.11-11.59-1.47-21.22,7.56-19.94C289.72,159.76,285.64,167.28,287.19,182.61Z"/></g><g id="Forma_2957_copia-2" data-name="Forma 2957 copia"><path class="cls-7" d="M519.21,608.61c-5.18-45.67-47.67-38.44-59.13-48.76-29.25-49.47-63.45-46-63.45-46h0c-3.85,0-39.71,1.71-63.1,46-11.46,10.32-53.95,3.09-59.13,48.76-4.79,42.23,29.26,128.75,122.23,129H397C490,737.36,524,650.84,519.21,608.61Z"/></g><g id="Forma_2957_copia_4-2" data-name="Forma 2957 copia 4"><path class="cls-8" d="M519.21,608.61C518,598.29,515,590.68,510.77,585a57.77,57.77,0,0,1,3.25,14c4.79,42.24-29.25,128.76-122.23,129h-.35c-52.31-.13-86-27.58-104.55-59.08C304,704.16,339,737.44,396.63,737.58H397C490,737.36,524,650.84,519.21,608.61Z"/></g><g id="Forma_2957_copia_3-2" data-name="Forma 2957 copia 3"><path class="cls-9" d="M396.63,513.86h0c-3.85,0-39.71,1.71-63.1,46-11.46,10.32-53.95,3.09-59.13,48.76-3.55,31.27,14.2,86.82,61.39,113.64C297.66,693.52,283.28,645,286.5,616.56c5.18-45.66,47.67-38.44,59.13-48.75,23.39-44.27,59.25-45.94,63.1-46h0s10.56-1.07,25,6.46C413.51,512.14,396.63,513.86,396.63,513.86Zm73.54,50.65c.68,1.08,1.35,2.17,2,3.3,6.06,5.45,20.81,6,34.12,12.07C495.61,569.77,480.74,567.56,470.17,564.51Z"/></g><g id="Forma_2959-3" data-name="Forma 2959"><path class="cls-10" d="M367,549.48c-10.07,8,15.28,21.44,15.28,21.44S377.08,541.48,367,549.48Z"/></g><g id="Forma_2959_copia-2" data-name="Forma 2959 copia"><path class="cls-10" d="M433.52,549.48c-10.07-8-15.28,21.44-15.28,21.44S443.6,557.49,433.52,549.48Z"/></g><g id="Forma_2956-2" data-name="Forma 2956"><path class="cls-11" d="M368.11,511.1c-23.41,10.45-27.95,24.61-45.95,38.72s-29.59,7.47-47.76,22.83c-10.71,9.05-2.27,31.41,20.4,28.35,16.41-2.21,37-7,77.45-69.16,0,0,8.85-14.29,25.42-18C397.67,513.86,391.51,500.64,368.11,511.1Z"/></g><g id="Forma_2956_copia_2-2" data-name="Forma 2956 copia 2"><path class="cls-12" d="M394.42,510.18C378.16,514,369.49,528,369.49,528,329.06,590.18,308.44,595,292,597.2c-9.09,1.22-15.89-1.64-20.09-6.1,3.54,6.47,11.37,11.45,22.86,9.9,16.41-2.21,37-7,77.45-69.16,0,0,8.85-14.29,25.42-18A11.21,11.21,0,0,0,394.42,510.18Z"/></g><g id="Forma_2959-4" data-name="Forma 2959"><path class="cls-4" d="M320.39,558.12a169.83,169.83,0,0,0-23.86,9.34s-3.12,1.65-2.42,3.11,3.8-.34,3.8-.34a182.75,182.75,0,0,1,23.52-9c15.37-4.89,25.24-25.94,25.24-25.94S331.16,554.92,320.39,558.12Zm-34.58,15.22c-2.61,5,1.66,4.92,3.11,3.8s2-2.62.69-4.15S285.81,573.34,285.81,573.34Z"/></g></svg>