<svg id="Assets" xmlns="http://www.w3.org/2000/svg" viewBox="0 0 800 800"><defs><style>.cls-1{fill:#ffa700;}.cls-2{fill:#ffd383;}.cls-3{fill:#d27000;}.cls-4{fill:#9e5300;}.cls-5{fill:#ff9300;}.cls-6{fill:#f90;}.cls-7{fill:#4c4642;}.cls-8{fill:#303030;}.cls-9{fill:#fff;}</style></defs><g id="Elipse_1474" data-name="Elipse 1474"><ellipse class="cls-1" cx="161.67" cy="359" rx="85.53" ry="88.18"/></g><g id="Elipse_1474_copia_3" data-name="Elipse 1474 copia 3"><path class="cls-2" d="M161.67,270.82c-47.24,0-85.53,39.48-85.53,88.18,0,2.28.08,4.55.24,6.78,3.36-45.53,40.26-81.39,85.29-81.39s81.92,35.86,85.28,81.39c.17-2.23.25-4.5.25-6.78C247.2,310.3,208.91,270.82,161.67,270.82Z"/></g><g id="Elipse_1474_copia" data-name="Elipse 1474 copia"><ellipse class="cls-3" cx="158.93" cy="369.1" rx="55.59" ry="63.36" transform="translate(-240.37 414.49) rotate(-73.19)"/></g><g id="Elipse_1474_copia_2" data-name="Elipse 1474 copia 2"><path class="cls-4" d="M175,315.89c-33.5-10.12-67.85,5.5-76.73,34.89a50.51,50.51,0,0,0,.87,31.52,49.32,49.32,0,0,1,2.11-14.65c8.88-29.38,43.23-45,76.73-34.88,21.48,6.49,37.39,22,43.7,40C221.5,348.07,203,324.34,175,315.89Z"/></g><g id="Elipse_1474-2" data-name="Elipse 1474"><ellipse class="cls-5" cx="645.74" cy="359" rx="85.53" ry="88.18"/></g><g id="Elipse_1474_copia_4" data-name="Elipse 1474 copia 4"><ellipse class="cls-1" cx="645.74" cy="353.21" rx="85.34" ry="82.39"/></g><g id="Elipse_1474_copia-2" data-name="Elipse 1474 copia"><ellipse class="cls-3" cx="648.49" cy="369.1" rx="63.36" ry="55.59" transform="translate(-79.04 203.33) rotate(-16.81)"/></g><g id="Elipse_1474_copia_2-2" data-name="Elipse 1474 copia 2"><path class="cls-4" d="M709.14,350.78c-8.88-29.39-43.23-45-76.73-34.89-28,8.45-46.5,32.18-46.68,56.9,6.31-18,22.22-33.53,43.7-40,33.5-10.12,67.86,5.5,76.73,34.88a49.32,49.32,0,0,1,2.11,14.65A50.51,50.51,0,0,0,709.14,350.78Z"/></g><g id="Forma_26_copia_2" data-name="Forma 26 copia 2"><path class="cls-1" d="M682.55,605.89c-2.44-153.48-17.32-227.22-91.75-331.12-28.89-40.33-112.12-48.14-182.44-48.14-65.47,0-161.75,2.83-200.37,48.22-46.24,54.33-96.84,237.69-88.35,329.72-.53,73.77,18.66,148.55,286.81,148.55C629.8,753.12,683.46,662.94,682.55,605.89Z"/></g><g id="Forma_26_copia_3" data-name="Forma 26 copia 3"><path class="cls-6" d="M682.55,605.89c-2.44-153.48-17.32-227.22-91.75-331.12-28.89-40.33-112.12-48.14-182.44-48.14-6.82,0-14,0-21.35.14,66.57,1.18,140,10.63,166.74,48,74.42,103.9,89.3,177.64,91.74,331.12.89,55.65-50.16,142.84-260,147.07,6.82.11,13.79.16,21,.16C629.8,753.12,683.46,662.94,682.55,605.89Z"/></g><g id="Forma_26_copia_5" data-name="Forma 26 copia 5"><path class="cls-2" d="M208,274.85c-46.24,54.33-96.84,237.69-88.35,329.72-.18,25.07,1.92,50.27,15.3,72.6-.63-8.6-.87-18.47-.57-29.81,3.8-142.12,9.06-228.42,83.38-363,14.16-25.63,79.69-45,128.23-56.09C292,231.83,235.44,242.59,208,274.85Z"/></g><g id="Forma_25" data-name="Forma 25"><path class="cls-7" d="M399.58,457.7c-54.32,0-65.36,77.05-62.78,97S371.85,601,399.75,601s61.94-25.6,63.15-47.3S453.89,457.7,399.58,457.7Z"/></g><g id="Forma_25_copia_4" data-name="Forma 25 copia 4"><path class="cls-8" d="M461.47,531.57c-4.11,23.21-39.8,49.13-69.29,49.13-19.75,0-41.57-12-55.42-26.39,0,.12,0,.25,0,.37,2.44,18.77,31.32,43.26,58,46.09v55.86H406v-56c26.49-3.35,55.76-26.8,56.88-46.89A116.12,116.12,0,0,0,461.47,531.57Zm-.1-.65c0,.22.06.43.1.65h0C461.44,531.35,461.4,531.13,461.37,530.92Z"/></g><g id="Elipse_507" data-name="Elipse 507"><path class="cls-9" d="M365.25,530.62c-3.31-1.2-7.23,1.53-9.07,6.85-2.08,6-.94,14.14,3.87,16.18s9.46-3.73,10.23-10.72C371,536.59,368.44,531.77,365.25,530.62Z"/></g></svg>