<svg id="Assets" xmlns="http://www.w3.org/2000/svg" viewBox="0 0 800 800"><defs><style>.cls-1{fill:#002831;}.cls-2{fill:#f5f8f4;}.cls-3{fill:#79bbca;}.cls-4{fill:#fff;}.cls-5{fill:#cadcdd;}.cls-6{fill:#368b9c;}</style></defs><g id="Forma_2628" data-name="Forma 2628"><path class="cls-1" d="M269.13,552.8c-.16,2.17,0,107.63,0,107.63L317.79,697l163.39-.71,60-35.87,8.53-123.25S269.28,550.63,269.13,552.8Z"/></g><g id="Forma_2622_copia" data-name="Forma 2622 copia"><path class="cls-2" d="M553.19,568.75s-8.2-1.56-22.14-3.62c2.48,27.2,6.15,81.59-3,91.75a45.31,45.31,0,0,1-23.8,13.85c.32-1.92,3.5-29.68-14.91-35.88,0,0-36-9.09-42.27,12.44-3.68,12.6-5,29.51-5.47,37.73,0,3-.21,4.89-.21,4.89s0-1.85.21-4.89c.14-11.62-1.82-39.9-24.37-39.51a46.64,46.64,0,0,0-27,0c-22.55-.39-24.52,27.89-24.37,39.51.17,3,.21,4.89.21,4.89s-.17-1.89-.21-4.89c-.45-8.22-1.79-25.13-5.47-37.73-6.28-21.53-42.27-12.44-42.27-12.44-18.41,6.2-15.23,34-14.91,35.88a45.31,45.31,0,0,1-23.8-13.85c-8.59-9.54-5.87-58.14-3.45-86.54A205.79,205.79,0,0,0,255.31,578s-5.3,53.8.69,84.21,41.06,52.95,54.88,62.53,91.14,51.57,182.25,0c54.65-30.93,54.88-48,54.88-48S558.51,622.84,553.19,568.75Z"/></g><g id="Elipse_2626" data-name="Elipse 2626"><path class="cls-3" d="M417.24,645.51a46.64,46.64,0,0,0-27,0c-9.51-.17-15.36,4.77-18.94,11.4q8.93.32,18.05.32c15.77,0,31.1-.71,45.8-2.05A19.63,19.63,0,0,0,417.24,645.51Zm-99.1-10.66c-7.49,2.52-11.41,8.62-13.4,15.09a457.7,457.7,0,0,0,57.86,6.6c-.62-3.21-1.34-6.35-2.19-9.25C354.13,625.76,318.14,634.85,318.14,634.85ZM255.31,578s-3,30.37-1.94,58.37c6.74,2.47,13.94,4.76,21.54,6.84-2.72-19-.74-51.6,1.07-72.86A205.79,205.79,0,0,0,255.31,578Zm297.88-9.24s-8.2-1.56-22.14-3.62c1.62,17.73,3.74,47,2.49,68A164.84,164.84,0,0,0,554.1,623.1,364.82,364.82,0,0,0,553.19,568.75Zm-63.84,66.1s-36-9.09-42.27,12.44c-.64,2.17-1.2,4.48-1.7,6.84a393.45,393.45,0,0,0,54.92-10A19.46,19.46,0,0,0,489.35,634.85Z"/></g><g id="Forma_2630_copia_3" data-name="Forma 2630 copia 3"><path class="cls-2" d="M322.81,658.45c-.93-6.68-12.94-.69-12.94-.69s-4.32,12.1,1.3,31,11.41,10.78,11.51.77S323.74,665.12,322.81,658.45Z"/></g><g id="Forma_2630_copia_4" data-name="Forma 2630 copia 4"><path class="cls-2" d="M387.46,668.75c-.94-6.68-12.94-.69-12.94-.69s-4.33,12.1,1.3,31,11.41,10.78,11.51.77S388.39,675.42,387.46,668.75Z"/></g><g id="Forma_2630_copia_5" data-name="Forma 2630 copia 5"><path class="cls-2" d="M463.82,662.71c-.93-6.67-12.93-.69-12.93-.69s-4.33,12.11,1.29,31,11.42,10.78,11.51.78S464.76,669.38,463.82,662.71Z"/></g><g id="Forma_2619_copia" data-name="Forma 2619 copia"><path class="cls-4" d="M135.22,431.33c3.34,55,37.29,92,37.29,92s-16.37,36.4,25.93,57.19,89.51,6,89.51,6-4.8,31.17,6.75,40.84c13,10.87,32.51,15.63,49.76,7.82,7.77-3.52,14.56-38,14.56-38s.29,39.43,4.26,42.27c12.19,8.72,57.81,9.64,69.28,0,4.17-3.5,4.57-40.85,4.57-40.85s6.85,33.55,14.25,36.59c17.52,7.19,39.91,3,52.88-7.82,11.55-9.67,6.75-40.84,6.75-40.84s47.21,14.75,89.51-6,25.93-57.19,25.93-57.19,34-37,37.3-92C684.91,82.81,114.06,83,135.22,431.33Z"/></g><g id="Forma_2619_copia_3" data-name="Forma 2619 copia 3"><path class="cls-5" d="M339.13,626.68c-17.25,7.81-36.78,3.06-49.76-7.81h0a18.72,18.72,0,0,0,5.33,8.53c13,10.87,32.51,15.63,49.76,7.82,3.92-1.78,12.93-22.54,14.53-36.59-.93-11.92-1.42-16.34-1.42-16.34S346.9,623.16,339.13,626.68Zm-146-54.7c-9.21-4.53-15.65-9.8-20.07-15.28,3.88,8.39,11.45,16.95,25.4,23.81,33.05,16.24,74,11.25,89.51,5.68,1-5.89,1.78-10.65,1.78-10.65S235.42,592.78,193.11,572Zm434-291.17c22.64,38.17,34.77,85.5,31.34,142-3.34,55-37.3,92-37.3,92S637.5,551.19,595.19,572s-89.5,6-89.5,6,4.8,31.18-6.75,40.85c-13,10.87-35.37,15-52.88,7.81a4.07,4.07,0,0,1-.95-.56c1.93,4.6,4.08,8.19,6.27,9.09,17.52,7.19,39.91,3,52.88-7.82,11.55-9.67,6.75-40.84,6.75-40.84s47.21,14.75,89.51-6,25.93-57.19,25.93-57.19,34-37,37.3-92C667.44,370.55,653.12,320.38,627.08,280.81ZM427.23,631c-10.64,8.94-50.67,8.79-66.13,1.76.56,3.55,1.27,6.11,2.18,6.76,12.19,8.72,57.81,9.64,69.28,0,2.7-2.27,3.82-18.7,4.27-30-3-9.5-5-19.35-5-19.35S431.4,627.44,427.23,631Z"/></g><g id="Forma_2631_copia" data-name="Forma 2631 copia"><path class="cls-6" d="M278.92,588.73c4.77-1,7.88-1.84,8.76-2.1,2.82-12.91,9.51-31,9.51-31C283,568.23,279.91,582.07,278.92,588.73ZM165.85,514.91a104.72,104.72,0,0,0,6.66,8.41,31,31,0,0,0-1.22,3.48c9.62,6.89,16.5,9.31,16.5,9.31C179.35,531.5,171.58,522.69,165.85,514.91ZM642.14,501l-.06-1.08s-14.42,26.84-31.61,36.23c0,0,7.15-2.51,17.08-9.73a30.07,30.07,0,0,0-1.1-3.06S633.89,515.22,642.14,501ZM501.07,555.65s8.29,22.42,10.3,35.16l.15.06c-.25-2.67-.51-4.32-.51-4.32s3.06,1,8.3,2C518.3,581.87,515.12,568.13,501.07,555.65Z"/></g><g id="Forma_2628_copia" data-name="Forma 2628 copia"><path class="cls-3" d="M443.46,537.42c-1.79-3.4-34-44.6-34-44.6-3.18-5.74-12.46-5.74-15.65,0,0,0-32.24,41.2-34,44.6s-8.63,20,14.08,28.17c12.6,4.51,19.56-8.81,21.52-11,2.55-2.8,10-2.48,12.52,0,2.08,2,8.91,15.47,21.52,11C452.08,557.45,445.26,540.82,443.46,537.42Z"/></g><g id="Forma_2628_copia_2" data-name="Forma 2628 copia 2"><path class="cls-1" d="M440,532.91c-1.62-3.08-30.9-40.49-30.9-40.49-2.89-5.21-11.31-5.21-14.21,0,0,0-29.27,37.41-30.9,40.49s-7.82,18.19,12.79,25.58c11.44,4.1,17.76-8,19.54-10,2.31-2.55,9-2.25,11.36,0,1.9,1.84,8.1,14.05,19.54,10C447.8,551.1,441.6,536,440,532.91Z"/></g><g id="Forma_2626_copia" data-name="Forma 2626 copia"><path class="cls-6" d="M610,372c-131.76-72.84-161.53,47.73-161.53,47.73-11.19,69.24,6.42,116.62,58.89,133.46C583.63,577.62,690.2,416.28,610,372Zm-421.75,0c-80.2,44.33,26.37,205.67,102.64,181.19,52.47-16.84,70.08-64.22,58.89-133.46C349.78,419.68,320,299.11,188.25,372Z"/></g><g id="Forma_2632_copia" data-name="Forma 2632 copia"><path class="cls-1" d="M207,362.86c1.92-.56,66.79-22.23,97,9.09,2.91-.57,14.48-2.6,14.48-2.6S280.21,324.87,207,362.86ZM344.19,471.31c3.8,37.36-31.58,71.44-31.58,71.44,41.57-25.49,40.79-80.53,40.79-80.53Zm109.88,0-9.22-9.09s-.77,55,40.8,80.53C485.65,542.75,450.26,508.67,454.07,471.31Zm25.66-102s11.56,2,14.47,2.6c30.25-31.32,95.12-9.65,97.05-9.09C518,324.87,479.73,369.35,479.73,369.35Z"/></g><g id="Forma_2624_copia" data-name="Forma 2624 copia"><path class="cls-1" d="M212.93,377.47c-82.58,38.69,10.31,163.57,75,157.81s79.85-88.41,54.28-135.08C327.58,373.48,306.65,333.55,212.93,377.47Zm372.07,0c-93.73-43.92-114.66-4-129.29,22.73C430.14,446.87,445.29,529.51,510,535.28S667.58,416.16,585,377.47Z"/></g><g id="Forma_2625_copia" data-name="Forma 2625 copia"><path class="cls-5" d="M163.28,336.49S197.86,261.84,300.74,307C300.74,307,189.3,243.33,163.28,336.49Zm339-29.48c102.87-45.17,137.46,29.48,137.46,29.48C613.72,243.33,502.29,307,502.29,307Z"/></g></svg>