<svg id="Assets" xmlns="http://www.w3.org/2000/svg" viewBox="0 0 800 800"><defs><style>.cls-1{fill:#f90;}.cls-2{fill:#ffa88d;}.cls-3{opacity:0.62;}.cls-4{fill:#de795c;}.cls-5{fill:#ffcc80;}.cls-6{opacity:0.63;}.cls-7{fill:#ed7f00;}.cls-8{opacity:0.71;}.cls-9{fill:#ffe1b0;}.cls-10{fill:#ffefd4;}.cls-11{opacity:0.46;}.cls-12{fill:#795c29;}.cls-13{fill:#e97a00;}.cls-14{opacity:0.26;}.cls-15{fill:#ff987d;}.cls-16{opacity:0.43;}.cls-17{fill:#fff;}</style></defs><g id="Forma_5669" data-name="Forma 5669"><path class="cls-1" d="M211.15,187.91c-50.65-16.42-56.23-18.79-64.74-26.17-10.56-9.16-14.77-15.24-16.53-22s-8.87,7.4-4.47,14.46c0,0-8.28-9.08-15.16-8.61s-.63,6.68,2.07,10.33,4.48,11,4.48,11-9.6-1-14.81.69,4.15,16.93,9.3,21c0,0-2.41,66.15,20.66,98.48s56.59,62.84,116.39,7.58c.17-1.46,34.78-54.41,34.78-54.41S269.38,206.79,211.15,187.91Z"/></g><g id="Forma_5670" data-name="Forma 5670"><path class="cls-2" d="M199.44,245.41c-9.64-24.52-23.07-29.81-38.57-41.66C126.8,177.7,125.75,192,125.75,192s-23,83.84,57.85,121.56l47.87-46.84S206.06,262.26,199.44,245.41Z"/></g><g id="Forma_5671" data-name="Forma 5671" class="cls-3"><path class="cls-4" d="M199.44,245.41c-9.64-24.52-23.07-29.81-38.57-41.66C126.8,177.7,125.75,192,125.75,192a62.06,62.06,0,0,0-3.1,21.35c3-12.45,7.63-20.1,12.4-17.91,58.68,27,40.75,70.37,69.56,85.4l25.73-14.35C225.35,265.43,205.23,260.14,199.44,245.41Z"/></g><g id="Forma_5669-2" data-name="Forma 5669"><path class="cls-1" d="M696,167.59c-5.21-1.65-14.8-.69-14.8-.69s1.77-7.36,4.47-11,8.94-9.85,2.07-10.33-15.15,8.61-15.15,8.61c4.4-7.06-2.72-21.27-4.48-14.46s-6,12.88-16.53,22c-8.51,7.38-14.09,9.75-64.73,26.17-58.23,18.88-72,52.34-72,52.34s34.6,52.95,34.78,54.41c59.8,55.26,93.32,24.75,116.39-7.58S686.7,188.6,686.7,188.6C691.84,184.52,701.21,169.24,696,167.59Z"/></g><g id="Forma_5670-2" data-name="Forma 5670"><path class="cls-2" d="M672.23,192s-1-14.34-35.12,11.71c-15.5,11.85-28.93,17.14-38.57,41.66-6.62,16.85-32,21.35-32,21.35l47.86,46.84C695.25,275.88,672.23,192,672.23,192Z"/></g><g id="Forma_5671-2" data-name="Forma 5671" class="cls-3"><path class="cls-4" d="M672.23,192s-1-14.34-35.12,11.71c-15.5,11.85-28.93,17.14-38.57,41.66-5.78,14.73-25.9,20-30.89,21.12l25.73,14.35c28.81-15,10.87-58.36,69.56-85.4,4.76-2.19,9.37,5.46,12.39,17.91A62.06,62.06,0,0,0,672.23,192Z"/></g><g id="Forma_5668" data-name="Forma 5668"><path class="cls-1" d="M735.19,551.24c-8.34-28.46-38.53-58.62-38.6-58.6,11,1.65,27.62-3.1,36.12-13.63s-18.39-9.39-30.65-12.35-11.84,4.27-22.9-25.89-23.32-123.14-71.65-168.72c-37.08-34.85-91.36-56.24-149.76-64.38,3.2-5.4,6.78-13.57,5.25-21.23-2.58-12.93-7.53-7.56-12.79.31s-11.12,8.31-11.12,8.31-2.47-19.46-14.66-33.61-16.94-11.67-16.22,3.52-1.57,23-1.57,23a84.36,84.36,0,0,0-30.49-23.59c-19.53-8.8-21.65-5.41-11.11,7.35s12.85,20.42,12.86,20.41-19.93-11.43-35.06-11-4.42,10.43,4.44,20.51c1.08,1.23,2.56,3.22,4.43,5.65-59.8,7.91-115.93,29.84-153.33,65.66-48,46-57.94,139-67.34,168.73s-9,22.33-19.43,24.39S78.7,464,86.2,475.42s21.27,17.95,30.55,17.15c-.24.14-24.74,27.4-30.44,54.31-2.85,12.4,15.46.61,21.41.4,0,0-7.11,26.1-4.74,44.77,1.49,12,5.81,8,10,6.73s19.61.22,26.67,1a78.82,78.82,0,0,0,18.23,53c16.21,19.16,18.47,16.61,20.79,10.41,2.14-5.58,4.68-8.31,10.82-12.66.23-.19,9.89,26.16,41.76,51.29C263,727.17,316.86,751.25,401,750.64h.75C569.84,750,615.66,647.25,614.93,646.83c7.14,4.6,10.15,7.49,12.84,13.26,3,6.46,5.46,9,23.49-9.61,23.54-24.47,19.92-52.43,20-52.44,8.3-.3,26.94-.21,32.1,1.63s10.63,6.37,12.21-5.47c2.51-18.52-6.84-45.69-6.87-45.7C715.81,549.31,739.1,564.16,735.19,551.24Z"/></g><g id="Forma_5683" data-name="Forma 5683"><path class="cls-5" d="M107.34,548.72h0c0,.17-.09.34-.13.53l0,.09c0,.18-.1.38-.15.59,0,0,0,.06,0,.1-.06.22-.11.44-.17.69v0c0,.24-.11.49-.17.74,0,0,0,.07,0,.1l-.18.8a.94.94,0,0,0,0,.16c-.06.28-.13.56-.19.86l0,.14c-.07.3-.14.61-.2.93v0q-.1.48-.21,1a1.62,1.62,0,0,0,0,.19q-.1.49-.21,1c0,.07,0,.14,0,.21q-.1.52-.21,1.08l0,.13-.21,1.09,0,.16q-.1.57-.21,1.17c0,.08,0,.16,0,.24l-.21,1.19,0,.23-.21,1.28v0c-.07.43-.13.86-.2,1.29a2,2,0,0,1,0,.24c-.06.42-.12.85-.19,1.29a2.51,2.51,0,0,1,0,.27l-.18,1.33,0,.2c-.05.43-.11.87-.17,1.32,0,0,0,.09,0,.14-.06.46-.12.93-.17,1.39l0,.27-.15,1.38,0,.27c0,.47-.1.95-.14,1.43a.41.41,0,0,1,0,.11c0,.46-.08.93-.11,1.4,0,.07,0,.15,0,.22,0,.47-.07.94-.1,1.42,0,.09,0,.19,0,.28,0,.48-.06,1-.08,1.42a1.77,1.77,0,0,1,0,.23c0,.47,0,.95,0,1.42V581c0,.48,0,1,0,1.45v.26c0,.47,0,.94,0,1.41v.26c0,.48,0,1,0,1.43a.71.71,0,0,0,0,.14c0,.46,0,.91,0,1.37a1.09,1.09,0,0,0,0,.18c0,.46,0,.92.08,1.37a2.45,2.45,0,0,0,0,.27c0,.45.07.9.11,1.34a1.79,1.79,0,0,1,0,.23c.05.46.1.92.16,1.38s.09.71.14,1.05l.06.34c0,.21.07.42.1.62s0,.25.08.38.06.34.1.5.06.25.08.38.07.29.1.42.07.25.1.37.07.24.11.35a3.58,3.58,0,0,0,.11.35l.1.3.12.33c0,.08.07.17.11.25s.09.21.13.3l.1.22.15.27a1.62,1.62,0,0,1,.1.18c.06.08.11.17.16.25l.1.14.18.22.09.11a1.8,1.8,0,0,0,.19.2l.08.08.21.18.08,0a1.82,1.82,0,0,0,.23.15l0,0,.26.13,0,0,.29.1h0c.12-30.59,25.23-73.57,25.23-73.57C122,531.37,113.66,540.12,107.34,548.72Zm47.33,36.57c-7.53,3.53-12.18,10.7-15,18h0c0,.26,0,.52,0,.8v0c0,.28,0,.56,0,.86h0q0,.43,0,.9V606q0,.91.12,2c0,.06,0,.12,0,.18q0,.51.09,1.05v.1c0,.33.06.67.1,1,0,.07,0,.14,0,.21,0,.36.08.73.13,1.11l0,.23c0,.34.09.69.14,1a1.1,1.1,0,0,1,0,.18c.06.4.12.8.19,1.2,0,.1,0,.2,0,.3l.21,1.23s0,0,0,.06l.24,1.28c0,.11.05.22.07.33q.12.64.27,1.32a1.74,1.74,0,0,1,0,.22l.27,1.2c0,.11.06.22.08.33.11.45.22.9.34,1.36l.09.33c.11.41.22.83.34,1.24,0,.09.05.18.07.27.14.47.28,1,.43,1.43,0,.13.07.26.11.38.15.48.3,1,.46,1.44l0,.11c.16.49.33,1,.51,1.48,0,.13.09.26.14.4.18.5.36,1,.56,1.51,0,.09.07.18.1.26l.54,1.37.15.36c.21.52.43,1,.66,1.55l.16.36c.21.46.42.93.64,1.4,0,.09.08.18.13.27.25.53.51,1.06.77,1.59l.2.4c.27.53.55,1.07.84,1.61,0,0,0,0,0,.05.3.54.6,1.09.91,1.63l.22.39c.31.54.63,1.09,1,1.63.05.08.11.16.16.25.3.49.61,1,.93,1.48.07.11.14.23.22.34.35.55.72,1.09,1.09,1.63l.23.34c.35.5.7,1,1.06,1.49l.18.24c.4.55.81,1.1,1.23,1.64l.3.38c.43.55.88,1.11,1.34,1.66.31.37.61.73.92,1.08.08.11.17.21.25.31.24.26.46.53.69.79l.22.26.85,1a1.37,1.37,0,0,0,.16.18c.22.26.45.51.67.76l.24.27.65.73.14.15.75.82.19.2.57.6a2.09,2.09,0,0,0,.2.22l.7.73v0c.23.22.44.45.66.66l.18.19.51.5.15.15.61.59.11.11.49.45.16.15.49.44.08.07c.18.17.36.32.54.47l.13.11.4.34a.69.69,0,0,1,.13.11l.5.39h0l.46.34.12.08.36.26.09.06.43.28.07,0,.35.2.1.06.35.19,0,0,.37.17.08,0,.28.12.08,0,.34.1h0l.31.08h.08l.25,0h.68l.24,0h0l.25-.07.05,0,.19-.07,0,0,.22-.12C154.26,637.84,154.67,585.29,154.67,585.29Zm37.88,49.93a31.82,31.82,0,0,0-2.37,16.65h0l.25.52a.36.36,0,0,0,0,.09c.09.19.18.39.29.61l0,0,.31.65.06.12.36.72.09.18.4.79.09.18.44.84.07.12.48.9.13.24.53,1c0,.09.1.18.16.27.19.34.38.69.59,1l.13.24c.19.33.39.67.6,1l.12.2c.22.38.46.77.69,1.16l.2.31c.23.39.48.79.73,1.19l.21.32c.26.42.53.84.81,1.27l.16.23c.26.4.52.81.8,1.22l.18.27q.45.67.93,1.35l.24.36,1,1.38.24.34,1.07,1.47.13.18,1.08,1.43.25.32,1.17,1.52.3.37,1.25,1.56.26.31,1.29,1.56.13.15,1.44,1.67.3.34c.47.55,1,1.09,1.46,1.64l.33.37,1.56,1.69.23.24c.52.56,1.05,1.11,1.59,1.67l.21.21c.56.58,1.14,1.16,1.73,1.75l.35.35,1.77,1.73.35.33,1.92,1.8.15.14,1.95,1.76.29.25c.67.6,1.35,1.19,2,1.78l.4.35,2.13,1.77.35.29,2.31,1.86c.52.42,1,.83,1.59,1.25l.52.4,1.1.85.63.47,1,.78.67.49,1,.76.69.49,1.07.76.68.48,1.12.78.67.45,1.21.82.61.4,1.38.91c.16.1.32.2.47.31l1.83,1.16.07,0q2,1.24,4,2.48l.17.1,1.87,1.1.37.21,1.72,1,.45.25,1.69.93.47.26,1.74.93.44.24,1.85,1,.36.18,2.06,1,.19.1c3.89,1.93,8,3.81,12.22,5.61h0l2.53,1,.16.06,2.44,1,.2.08,2.48,1,.17.07,2.61,1,.06,0q8.24,3,17.31,5.64C240.64,709,192.55,635.22,192.55,635.22Zm-77.24-141-.51.6,0,0-.55.66-.09.11-.61.74-.09.1-.67.82,0,0-.72.9-.13.16-.74.94a1.33,1.33,0,0,0-.14.19c-.27.33-.54.68-.81,1l-.07.09c-.27.35-.54.7-.81,1.07a1.83,1.83,0,0,0-.13.16c-.28.37-.57.76-.85,1.15l-.18.24-.89,1.2-.15.21-.91,1.26-.06.09c-.31.44-.63.89-.94,1.35a2.48,2.48,0,0,0-.19.26l-.93,1.36c-.07.09-.13.19-.2.29l-1,1.44-.1.16-.94,1.43-.15.23c-.32.5-.64,1-1,1.52a3.45,3.45,0,0,0-.2.32l-1,1.55-.17.28c-.33.53-.65,1.07-1,1.61a.56.56,0,0,1,0,.08c-.33.56-.65,1.12-1,1.69l-.18.31c-.32.55-.63,1.1-.93,1.66l-.19.34-.93,1.73-.1.2c-.3.56-.59,1.13-.88,1.7l-.12.24c-.3.58-.59,1.17-.88,1.77,0,.12-.11.24-.17.36l-.84,1.78c0,.1-.09.2-.13.31-.29.61-.56,1.23-.83,1.86l0,0c-.27.63-.53,1.26-.79,1.89l-.13.33c-.25.61-.49,1.22-.72,1.84,0,.12-.09.24-.13.36-.24.62-.47,1.25-.69,1.88a1.72,1.72,0,0,1-.07.21c-.21.61-.41,1.23-.61,1.84a2,2,0,0,1-.07.23c-.2.63-.38,1.26-.56,1.89,0,.13-.07.25-.11.37-.17.62-.34,1.25-.5,1.88,0,.1,0,.21-.07.31-.16.66-.32,1.32-.46,2,0,.23-.09.44-.13.65l0,.19c0,.14-.05.28-.06.42l0,.19,0,.41s0,.09,0,.14a4.17,4.17,0,0,0,0,.5v.06l0,.4s0,.08,0,.12a2.87,2.87,0,0,0,.05.31l0,.11c0,.11.06.22.1.33v0l.15.34,0,0a2.33,2.33,0,0,0,.17.26l0,.06a1.29,1.29,0,0,0,.19.21l0,0a2.71,2.71,0,0,0,.55.41h0l.3.14,0,0,.34.11h0a4.94,4.94,0,0,0,.8.14c7.88-22.66,39.94-62.62,39.94-62.62A28.51,28.51,0,0,0,115.31,494.19ZM314,214.34l-3.13.77-1.79.45-3,.79-1.87.51-3,.82-1.84.53c-1,.28-2,.57-3,.87-.5.14-1,.3-1.48.45q-3,.91-5.94,1.87l-1.62.53c-.91.3-1.81.62-2.72.93l-2,.69-2.62.93-2.07.76-2.54.95-2.12.82c-.82.32-1.64.63-2.45,1l-2.27.92-3.48,1.45-3,1.27-2.12.95c-.78.35-1.57.7-2.34,1.06l-2.13,1-2.3,1.09-2.07,1-2.34,1.18-2,1-2.61,1.38-1.62.86c-1.35.73-2.69,1.48-4,2.23-.48.27-.95.55-1.42.83-.9.52-1.8,1-2.69,1.57l-1.67,1c-.8.49-1.61,1-2.4,1.48l-1.67,1-2.38,1.54-1.57,1c-.87.58-1.73,1.17-2.59,1.76l-1.26.87q-1.89,1.32-3.74,2.67l-.72.54c-1,.74-2,1.49-3,2.24l-1.28,1c-.79.62-1.58,1.24-2.35,1.87l-1.36,1.11-2.23,1.86-1.3,1.12c-.79.67-1.56,1.36-2.32,2l-1.1,1c-1.11,1-2.22,2-3.3,3.08-48,46-57.94,139-67.34,168.73s-9,22.33-19.43,24.39l-.48.09-.17,0-.33.06-.21,0-.31,0-.22,0-.31,0-.23,0-.32,0-.23,0-.33,0-.23,0-.34,0-.23,0-.36,0h-.22l-.38,0-.21,0-.41,0h-.18l-.46,0h-.14l-.53,0h-.07c-8.77.33-19.27-.26-20,4.25h0c0,.1,0,.2,0,.3v.36l0,.31v0c0,.11,0,.22.05.33v0a2.25,2.25,0,0,0,.09.35v0a3.16,3.16,0,0,0,.12.37v0l.16.4h0c8.59-3.86,31.83,10.79,46.41-2.27,17.39-15.58,22.12-83.26,52-158.75,20.17-50.95,104.75-87.24,139.72-100.34-2.66.57-5.32,1.17-7.95,1.8Zm44.78-52.69c.24,2,2.4,5.42,6.24,10.08,9,10.91,12,18.06,12.68,19.92a258.77,258.77,0,0,0,22.13,16.23C392.11,182.78,368.63,167.22,358.8,161.65ZM408.21,165c.63,13.71-1.15,21.38-1.5,22.77,4,7.37,10.38,18.8,12.77,21.17,0,0,3.51-36.69-9.18-56C408.56,154.54,407.91,158.65,408.21,165Zm-72.95,19.85c-.21,3.88,6.29,10.35,12,16.87,1.08,1.23,2.56,3.22,4.43,5.65l-.64.09c9.77,4.86,21.92,9.4,21.92,9.4C362,199.11,341.91,188.11,335.26,184.82Zm115,1.93c-5.11,7.64-10.77,8.28-11.1,8.31a59.3,59.3,0,0,1-.35,11.1s19-12.42,20.32-27.41C456.56,178,453.44,181.91,450.21,186.75Z"/></g><g id="Forma_5684" data-name="Forma 5684" class="cls-6"><path class="cls-7" d="M692.55,475.44A296,296,0,0,0,732.7,479h0c8.56-10.55-18.39-9.39-30.65-12.35s-11.84,4.27-22.9-25.89-23.32-123.14-71.65-168.72c-27-25.38-63.13-43.61-103.32-54.79,44.57,20,91.47,55.55,116.39,96.68C660.9,380.5,656.08,470,692.55,475.44ZM662.94,578.06s-15.15,60.12-29.46,86.73c3.22-.65,8.39-4.6,17.78-14.31,23.54-24.47,19.92-52.43,20-52.44C671.45,593.63,667.49,583.68,662.94,578.06Zm-51.66,26.17s-30.37,89.49-130.93,137.48c104.34-25.11,135.18-94.54,134.58-94.88C616.21,639.34,614.85,617.24,611.28,604.23Zm59.58-78.51S704,574.1,713.47,600.58c.91-1.18,1.62-3.18,2-6.38,2.51-18.52-6.84-45.69-6.87-45.7C699.47,540,691.55,532,670.86,525.72Zm64.33,25.52c-7.57-25.82-33.11-53-37.84-57.85a34.46,34.46,0,0,0-14.1-.39s36.51,41.41,52.25,61.7A6.59,6.59,0,0,0,735.19,551.24Z"/></g><g id="Forma_5665_copia" data-name="Forma 5665 copia" class="cls-8"><path class="cls-9" d="M314.14,345.9c-66.42-51.17-145.42,53.48-133.41,141.68,6.49,47.73,79,53.15,92,55.47,11.45,2.05,52.59,3.74,63.44-12.13C366.92,485.87,382.89,398.86,314.14,345.9Zm172.11,0c-68.75,53-52.78,140-22,185,10.85,15.87,52,14.18,63.44,12.13,13-2.32,85.46-7.74,92-55.47C631.67,399.38,552.67,294.73,486.25,345.9Z"/></g><g id="Forma_5663_copia_2" data-name="Forma 5663 copia 2"><path class="cls-9" d="M514.52,557.74c-48.4-27.61-108.15-2.33-111.74-.76-3.59-1.57-63.34-26.85-111.74.76-29.74,17-32.37,26.52-32.37,26.52s1.64,41.37,26.86,67.14c0,0,28.27,96,116,97.77v0H404v0c87.77-1.73,116-97.77,116-97.77,25.22-25.77,26.86-67.14,26.86-67.14S544.26,574.7,514.52,557.74Z"/></g><g id="Forma_5686" data-name="Forma 5686"><path class="cls-10" d="M267.62,585.29C277.77,563,317.94,550.07,337.16,545c-15.13.69-31.17,4.17-46.12,12.7-29.74,17-32.37,26.52-32.37,26.52s1.61,40.47,26,66.29C273.24,625.17,260.72,600.45,267.62,585.29Z"/></g><g id="Forma_5666" data-name="Forma 5666" class="cls-11"><path class="cls-12" d="M398.48,584.51s-.2,14.19,2.26,22.54,3.05,8,5.11,0,2.27-23.48,2.27-23.48Z"/></g><g id="Forma_5662_copia_2" data-name="Forma 5662 copia 2"><path class="cls-13" d="M435.32,502c-16.49-23.49-48.59-23.49-65.08,0-17.68,25.17-24,38.18-18.6,48.89S362,563.6,362,563.6s.63-3.58,3.79-2.76,11.73,6.88,13.43,14.12c2,8.68,18.83,14.86,24.12,14.86,2.84,0,20.49-3.89,23.06-14.86,1.7-7.24,10.27-13.3,13.43-14.12s3.79,2.76,3.79,2.76,4.91-2,10.33-12.75S453,527.13,435.32,502Z"/></g><g id="Forma_5694" data-name="Forma 5694" class="cls-14"><path class="cls-5" d="M394.56,485.25A40.49,40.49,0,0,0,370.24,502c-17.68,25.17-24,38.18-18.6,48.89,3,5.85,5.76,9.1,7.7,10.86,1.79-2.56,3.32-5.35,3.32-5.35C349.54,538.82,382.82,498.5,394.56,485.25Z"/></g><g id="Elipse_5666" data-name="Elipse 5666"><path class="cls-12" d="M381.41,558.75c-6.68-5.4-14.86-6.87-18.25-3.27s-.71,10.9,6,16.31,14.86,6.86,18.25,3.26S388.1,564.16,381.41,558.75Z"/></g><g id="Elipse_5666_copia" data-name="Elipse 5666 copia"><path class="cls-12" d="M442.4,555.48c-3.39-3.6-11.56-2.13-18.25,3.27s-9.36,12.71-6,16.3,11.56,2.14,18.24-3.26S445.79,559.08,442.4,555.48Z"/></g><g id="Forma_5663_copia" data-name="Forma 5663 copia"><path class="cls-15" d="M436,543.28c-8.29-2-9.84.18-15.15,2.41a42.6,42.6,0,0,1-35.13,0c-5.31-2.23-6.85-4.44-15.15-2.41-11,2.68-15.22,7.56-16.79,11.44,4.5,7.35,8.18,8.88,8.18,8.88s.63-3.58,3.79-2.76,11.73,6.88,13.43,14.12c2,8.68,18.83,14.86,24.12,14.86,2.84,0,20.49-3.89,23.06-14.86,1.7-7.24,10.27-13.3,13.43-14.12s3.79,2.76,3.79,2.76,4-1.66,8.76-9.86C450.49,550.05,446.1,545.74,436,543.28Z"/></g><g id="Forma_5686-2" data-name="Forma 5686" class="cls-16"><path class="cls-17" d="M386.08,550.51c-11.76-6.13-21,0-21,0,16.72-1.45,20.77,6.54,38.23,6.54s25.82-10,25.82-10C420.4,552.75,397.84,556.64,386.08,550.51Z"/></g><g id="Forma_31" data-name="Forma 31"><path class="cls-17" d="M83.21,563s103.37-40.67,225.71,12.23C308.92,575.18,181.65,508.25,83.21,563Z"/></g><g id="Forma_31_copia" data-name="Forma 31 copia"><path class="cls-17" d="M93.92,640.55s86.86-65,216.82-53.36C310.74,587.19,174,564.42,93.92,640.55Z"/></g><g id="Forma_31_copia_2" data-name="Forma 31 copia 2"><path class="cls-17" d="M139,694.1s56.6-72.74,166.9-100.51C305.88,593.59,188.8,614.21,139,694.1Z"/></g><g id="Forma_31-2" data-name="Forma 31"><path class="cls-17" d="M488.25,574.31c140.57-52.68,225.64-7.57,225.64-7.57C631.67,508,488.25,574.31,488.25,574.31Z"/></g><g id="Forma_31_copia-2" data-name="Forma 31 copia"><path class="cls-17" d="M484.69,588.56c146.7-11.65,216.81,51.76,216.81,51.76C635,564.68,484.69,588.56,484.69,588.56Z"/></g><g id="Forma_31_copia_2-2" data-name="Forma 31 copia 2"><path class="cls-17" d="M490.19,596.18C613.39,625.56,660,696.83,660,696.83,617.8,616,490.19,596.18,490.19,596.18Z"/></g></svg>