<svg id="Assets" xmlns="http://www.w3.org/2000/svg" viewBox="0 0 800 800"><defs><style>.cls-1{fill:#a98473;}.cls-2{fill:#957462;}.cls-3{fill:#ffab9e;}.cls-4{fill:#f18175;}.cls-5{fill:#b69483;}.cls-6{opacity:0.53;}.cls-7{opacity:0.45;}.cls-8{fill:#f0cebd;}.cls-9{fill:#fce4d6;}.cls-10{fill:#cea892;}.cls-11{fill:#ae8a79;}.cls-12{opacity:0.52;}.cls-13{fill:#dc7b7b;}</style></defs><g id="Forma_5363" data-name="Forma 5363"><path class="cls-1" d="M298.41,327.42s-18.7-35.63-32.1-108.23C251.87,140.92,151.09,7,67.2,26.91c-75.9,18,37,219.69,115.39,260.4,52.95,27.48,75.34,73.42,75.11,72.82C257.7,360.13,329.18,392.1,298.41,327.42Z"/></g><g id="Forma_5364" data-name="Forma 5364"><path class="cls-2" d="M223,235.36C189,126.59,138.66,62.5,108,47.77c-17.84-8.58-33.25-13.15-38.09-9.18a29.33,29.33,0,0,1,11.19,2C145.22,64,189.32,169.74,215.88,242.36,237,300,263.83,328.7,263.83,328.7a11.16,11.16,0,0,1,1.68,3.92l7.45,7,1.88-13.84S239.69,288.91,223,235.36Z"/></g><g id="Forma_5364_copia" data-name="Forma 5364 copia"><path class="cls-3" d="M263.83,328.7S237,300,215.88,242.36C189.32,169.74,145.22,64,81.11,40.58,46.61,28,40.13,76,67.61,131.44,93.69,184.09,128.33,240,192.34,280.52c30.25,19.13,61.16,59.06,61.16,59.06S271.1,340.11,263.83,328.7Z"/></g><g id="Forma_5366" data-name="Forma 5366"><path class="cls-4" d="M263.83,328.7S237,300,215.88,242.36C189.32,169.74,145.22,64,81.11,40.58c-32.75-12-40.27,30.69-17.39,82.55h0s.13-41.38,24.55-45.63c24.8-4.31,70.39,51.25,100.59,164.43,4.86,18.21,9.56,33.38,14,46,26.6,20.57,50.59,51.61,50.59,51.61S271.1,340.11,263.83,328.7Z"/></g><g id="Forma_5363-2" data-name="Forma 5363"><path class="cls-1" d="M712.56,17.89C627.76,2.3,534,141.23,523.58,220.13c-9.66,73.2-26.51,109.74-26.51,109.74-27.41,66.17,42.34,30.57,42.34,30.57-.2.62,19.8-46.41,71.27-76.57C686.9,239.19,789.29,32,712.56,17.89Z"/></g><g id="Forma_5364-2" data-name="Forma 5364"><path class="cls-2" d="M672.88,40.82C643,57.1,596.08,123.69,567.71,234.06c-14,54.34-47.18,93-47.18,93l2.59,13.71,7.08-7.39a11.12,11.12,0,0,1,1.48-4s25.33-30,43.45-88.69c22.8-73.87,61.42-181.75,124.24-208.42a29.17,29.17,0,0,1,11.08-2.56C705.41,26,690.26,31.34,672.88,40.82Z"/></g><g id="Forma_5364_copia-2" data-name="Forma 5364 copia"><path class="cls-3" d="M699.37,32.26C636.55,58.93,597.93,166.81,575.13,240.68c-18.12,58.7-43.45,88.69-43.45,88.69-6.68,11.77,10.87,10.34,10.87,10.34s28.82-41.46,58-62.12c61.85-43.72,93.59-101.37,116.93-155.29C742.12,65.49,733.18,17.91,699.37,32.26Z"/></g><g id="Forma_5366-2" data-name="Forma 5366"><path class="cls-4" d="M699.37,32.26C636.55,58.93,597.93,166.81,575.13,240.68c-18.12,58.7-43.45,88.69-43.45,88.69-6.68,11.77,10.87,10.34,10.87,10.34s22.37-32.24,47.88-54.14c3.81-12.87,7.72-28.26,11.64-46.7,24.36-114.58,67-172.41,92-169.37,24.6,3,26.85,44.31,26.85,44.31h0C741.17,60.85,731.47,18.64,699.37,32.26Z"/></g><g id="Forma_5356" data-name="Forma 5356"><path class="cls-5" d="M689.73,554.84c-6.7-10.66-25.15-23.14-25.15-23.14,14.79,6.43,19.18.37,14.09-3s-12-15.38-21.13-23.81c-5-4.65-14.79-8.56-15.1-15.1-.82-19,3.95-140.17-45.61-191.17-28.75-29.59-75.23-48.9-127-57.76l.21-.26c7.88-9.72-1.19-19.58-10.4-19.45s-19.79,9.39-19.79,9.39c4.52-11.73,17.54-23.32,21.8-27.84s11.29-13.17-10.73-11.07c-20.9,2-32.33,18-33.44,19.65-.08.27-.1.14-.1.14l.1-.14c.17-.62.59-3.3,1.58-14.28,1.9-44.95-26.29-21.18-33.88-2.35s1,36.89,1,36.89c-4-1.59-15.07-12.61-17.44-21.46s-7.95-19.46-12.75.33c-2.4,9.91,2,19.55,6.93,26.72-62.1,6-120.08,26.42-154.16,61.49-49.56,51-44.79,172.18-45.61,191.17-.31,6.54-6.44,8-14.76,17.11-7.13,7.81-16.37,18.4-21.47,21.8s-.7,9.45,14.09,3c0,0-18.45,12.48-25.15,23.14s-14.31,22.19,11.4,8.72c0,0-12.37,17.66-14.76,30.52s.36,14.31,10.06,3.69c5-5.46,7.38-6,7.38-6s-19.33,16.45-8.38,45.95c5.41,14.59,10.74,11.43,10.73,3.69s2-6,2-6S174.28,743.89,402.64,744H403c228.36-.11,268.31-108.67,268.31-108.67s2-1.7,2,6,5.32,10.9,10.73-3.69c11-29.5-8.38-45.95-8.38-45.95s2.39.58,7.38,6c9.7,10.62,12.44,9.17,10.06-3.69s-14.76-30.52-14.76-30.52C704,577,696.44,565.5,689.73,554.84Z"/></g><g id="Forma_5362" data-name="Forma 5362" class="cls-6"><path class="cls-2" d="M631.38,465.29c1,15,6,23,12.07,27.78a7.4,7.4,0,0,1-1-3.3c-.82-19,3.95-140.17-45.61-191.17-21.52-22.14-53-38.53-89.14-49.09,24.17,15.13,71.44,44.47,88.47,64.86C623.35,346.91,628.79,402.27,631.38,465.29ZM454.29,247.62s15.08,1.29,26.88-4.65q-5.13-1-10.33-2A55.48,55.48,0,0,1,454.29,247.62ZM680.68,531.9c-3.37-.36-11.08-1.75-15.76-6.91-6.13-6.75-13.76-2.35-13.76-2.35s6.22,3.87,15.29,9.82C675.74,536.05,680.39,534.36,680.68,531.9Zm-18.11,48.43a71,71,0,0,1,13.86,11.74c1.07.56,3.24,2,6.6,5.7,5.91,6.47,9.23,8.45,10.39,6.1C689.48,599.12,679.61,588.75,662.57,580.33Zm6.37,38.23s-9.91,36.55-78.22,89.82c65.35-31.69,80.57-73,80.57-73s2-1.7,2,6c0,5,2.17,8,5.16,5.78C678.42,639.57,677.23,624.69,668.94,618.56Zm5.37-63c-10.1-5.77-15.1-3-15.1-3a123.38,123.38,0,0,1,19.22,11.21l-.1-.14c12.88,6.74,17.4,7.22,17.86,4.67C692.82,566.22,685.64,562,674.31,555.51Z"/></g><g id="Forma_5360" data-name="Forma 5360" class="cls-7"><path class="cls-8" d="M126.56,564.62c-2.67,4-12,18.48-14,29.46-1.45,7.82-1,11.41,1.76,10.64,2-10.7,32.45-54.58,32.45-54.58C139.29,553,132.34,558.67,126.56,564.62Zm11.13,61.32a14,14,0,0,0-3.57,9.27.76.76,0,0,1,.21.12s15.75,42.79,84,74.67C167.67,676,140.44,629.43,137.69,625.94Zm19.78-50.31C145,580,136.1,585.73,129.79,591.79l.18-.06s-19.33,16.45-8.38,45.95c3.08,8.29,6.12,10.85,8.18,10.09C113.12,618.12,157.47,575.63,157.47,575.63ZM153.11,527A56.49,56.49,0,0,0,139,533.11c-5,3.56-17.79,13.22-23.13,21.73-4.28,6.8-8.93,14-5,14.75C115.19,560.71,153.11,527,153.11,527ZM465.39,193.24c-1.59-1.61-5.75-2.46-14.45-1.63-17.49,1.67-28.34,13.15-32.07,17.82-3.78,7.6-6.88,17.37-4.49,26.45C414.38,235.88,440.22,189.54,465.39,193.24Zm-5.73,27.89c-7.56.1-16,6.36-18.84,8.6a16.67,16.67,0,0,0-2.29,4.48s17.06-11.06,29.47-10.39A14.09,14.09,0,0,0,459.66,221.13Zm-46.07-48.41c-8.21-6.32-23.17,9-28.39,21.91-6.51,16.16-1.11,31.73.55,35.84a52.89,52.89,0,0,0,10.52,10.11s-3.1-13.22-3-36.22C393.32,185.39,408.34,175.58,413.59,172.72ZM363.5,199.6c-2.34-1.52-5,.62-7.48,10.79-2.38,9.84,1.91,19.41,6.82,26.56a112.25,112.25,0,0,0,17,8.33C355.46,226.73,360.61,206.64,363.5,199.6ZM163.18,489.77c-.31,6.54-6.44,8-14.76,17.11-7.13,7.81-16.37,18.4-21.47,21.8-2.09,1.39-2.58,3.23-1.41,4.47,5.54-2.54,13.75-7.9,32.27-19.23,20-12.22,17.1-20.12,17.1-20.12S171.12,407.16,188,357.63c25.27-74.13,125.33-109,157.21-118.39-55.26,7.94-105.6,27.65-136.41,59.36C159.23,349.6,164,470.78,163.18,489.77Z"/></g><g id="Forma_5354_copia" data-name="Forma 5354 copia"><path class="cls-8" d="M515.67,567.25C464.77,554.36,454,550.48,454,550.48H350.32s-10.81,3.88-61.71,16.77S203.56,610.58,212.14,640c43.43,149,336.12,150.57,380,0C600.72,610.58,566.57,580.14,515.67,567.25Z"/></g><g id="Forma_5354_copia_3" data-name="Forma 5354 copia 3"><path class="cls-9" d="M304,570.63c53.72-13.43,65.13-17.47,65.13-17.47l-18.77-2.68s-10.81,3.88-61.71,16.77S203.56,610.58,212.14,640c10.12,34.71,33.76,61.42,64.63,80.07-25.34-18.6-44.5-43.17-53.51-73.67C214.21,615.76,250.24,584.05,304,570.63Z"/></g><g id="Forma_5358" data-name="Forma 5358"><path class="cls-10" d="M402,592.74c-2.07,9.83-3,53-3,53h5.7C405.1,634.73,404.05,582.9,402,592.74Z"/></g><g id="Forma_5355" data-name="Forma 5355"><path class="cls-8" d="M326.17,358.3c-52.45-32.47-122.07-1.8-138.51,141.2-2.5,21.75,75.08,76.7,160.65,34.88l16.77-24.82S378.63,390.77,326.17,358.3Z"/></g><g id="Forma_5355_copia" data-name="Forma 5355 copia"><path class="cls-8" d="M622,499.5c-16.44-143-86.06-173.67-138.52-141.2s-38.9,151.26-38.9,151.26l16.77,24.82C546.91,576.2,624.49,521.25,622,499.5Z"/></g><g id="Forma_5351_copia" data-name="Forma 5351 copia"><path class="cls-11" d="M467,548.8c-7.32-85.52-123.56-80.84-130.47,0-2,23,42.82,45.13,65.23,43.61C424.22,593.93,469,571.81,467,548.8Z"/></g><g id="Forma_5351_copia_3" data-name="Forma 5351 copia 3" class="cls-12"><path class="cls-8" d="M430.17,492.21c-37.05-16.86-89,3.34-93.6,56.59-1.44,16.8,47.46,17.86,49.64,11.4-18.48-7.88-39.65-6.71-38.91-21.46C349.07,503.63,394.06,481.38,430.17,492.21Z"/></g><g id="Forma_5352_copia" data-name="Forma 5352 copia"><path class="cls-13" d="M467,548.8c-.07-.74-.14-1.48-.23-2.21-9.07,3.47-28.42,13.93-64.84,13.95s-56.1-10.48-65.17-13.95c-.09.73-.17,1.47-.23,2.21-2,23,42.82,45.13,65.23,43.61C424.22,593.93,469,571.81,467,548.8Z"/></g><g id="Elipse_5353" data-name="Elipse 5353" class="cls-12"><path d="M370.61,572.5c-8-2.31-15.5-1.56-19.07,1.5a96.39,96.39,0,0,0,32.72,16.16,5.9,5.9,0,0,0,1.74-2.72C387.55,582.1,380.66,575.41,370.61,572.5Z"/></g><g id="Elipse_5353_copia" data-name="Elipse 5353 copia" class="cls-12"><path d="M433,572.5c-10.05,2.91-16.94,9.6-15.4,14.94a6,6,0,0,0,1.75,2.72A96.39,96.39,0,0,0,452.07,574C448.5,570.94,441,570.19,433,572.5Z"/></g></svg>