<svg id="Assets" xmlns="http://www.w3.org/2000/svg" viewBox="0 0 800 800"><defs><style>.cls-1{fill:#f2e8e6;}.cls-2{fill:#e4c3bc;}.cls-3{fill:#553d49;}.cls-4{fill:#452737;}.cls-5{fill:#6c545e;}.cls-6{opacity:0.64;}.cls-7{fill:#e9d9d7;}.cls-8{opacity:0.51;}.cls-9{fill:#fff;}.cls-10{fill:#816e77;}.cls-11{fill:#634555;}.cls-12{fill:#513343;}.cls-13{fill:#331212;}.cls-14{fill:#1d0502;}.cls-15{fill:#bda0af;}.cls-16{opacity:0.86;}</style></defs><g id="Forma_6753" data-name="Forma 6753"><path class="cls-1" d="M217.28,141.28C163.7,99.06,125.21,69,104.64,183.47c-17.51,97.54,64.29,220,78.52,199.6,13.75-9.63,14.84-93,123.65-163.64C306.81,219.43,270.86,183.5,217.28,141.28Z"/></g><g id="Forma_6755" data-name="Forma 6755"><path class="cls-2" d="M217.28,141.28c-41.21-32.48-73.49-57.78-95.56-15.62,9.49-7,29.66-23.31,51.53-1.26,30.54,30.79,64,96.52,100.9,111.54,2.44-.81,6-1,10.32-.72q10.33-8,22.34-15.79S270.86,183.5,217.28,141.28Z"/></g><g id="Forma_6756" data-name="Forma 6756"><path class="cls-3" d="M231.23,216.13c-9.2-15.87-54.76-77.8-84.76-95.4-14.31-8.39-38.79,50-30.09,113.38,7.61,55.4,24.14,105.48,58,133.55,0,0,22.48-84.5,62.37-120.34A45.92,45.92,0,0,0,231.23,216.13Z"/></g><g id="Forma_6757" data-name="Forma 6757"><path class="cls-4" d="M231.23,216.13c-9.2-15.87-54.76-77.8-84.76-95.4-8.74-5.12-21.26,14.66-27.72,45.26,4-7.09,10.41-17.79,16.71-24.34,10.08-10.49,21.75-.28,33.39,13.94,21.92,26.78,54.39,63,68.52,86.87A46.85,46.85,0,0,0,231.23,216.13Z"/></g><g id="Forma_6758" data-name="Forma 6758"><path class="cls-4" d="M150.14,247.32s14.57,38.31,69,43.66l-7-15.41S167.57,267.27,150.14,247.32Zm77.78,2.2s-43.58-16.22-70.08-55c0,0,13.19,64.75,69.35,69.35C227.19,263.83,228,247.82,227.92,249.52Z"/></g><g id="Forma_6759" data-name="Forma 6759"><path class="cls-5" d="M142.43,169.9s22.63,54.26,66.78,62.74c0,0-35.67-29.93-48.8-58.34s-26.7-40.56-35.59,21.28c-4.4,30.66,39.76,61.68,51,65.31C175.82,260.89,141.57,218.43,142.43,169.9Z"/></g><g id="Forma_6753-2" data-name="Forma 6753"><path class="cls-1" d="M703.8,183.47C683.23,69,644.74,99.06,591.16,141.28s-89.53,78.15-89.53,78.15c108.81,70.65,109.9,154,123.65,163.64C639.51,403.45,721.31,281,703.8,183.47Z"/></g><g id="Forma_6755-2" data-name="Forma 6755"><path class="cls-2" d="M591.16,141.28c-53.58,42.22-89.53,78.15-89.53,78.15q12,7.81,22.34,15.79c4.32-.24,7.88-.09,10.32.72,36.94-15,70.36-80.75,100.89-111.54,21.88-22.05,42.05-5.72,51.54,1.26C664.65,83.5,632.37,108.8,591.16,141.28Z"/></g><g id="Forma_6756-2" data-name="Forma 6756"><path class="cls-3" d="M662,120.73c-30,17.6-75.56,79.53-84.76,95.4a45.85,45.85,0,0,0-5.5,31.19c39.89,35.84,62.37,120.34,62.37,120.34,33.84-28.07,50.36-78.15,58-133.55C700.76,170.75,676.28,112.34,662,120.73Z"/></g><g id="Forma_6757-2" data-name="Forma 6757"><path class="cls-4" d="M662,120.73c-30,17.6-75.56,79.53-84.76,95.4a46.76,46.76,0,0,0-6.14,26.33c14.13-23.89,46.6-60.09,68.52-86.87,11.63-14.22,23.31-24.43,33.39-13.94,6.3,6.55,12.75,17.25,16.7,24.34C683.23,135.39,670.7,115.61,662,120.73Z"/></g><g id="Forma_6758-2" data-name="Forma 6758"><path class="cls-4" d="M650.59,194.48c-26.5,38.82-70.07,55-70.07,55-.1-1.7.73,14.31.73,14.31C637.4,259.23,650.59,194.48,650.59,194.48Zm-54.3,81.09-7,15.41c54.41-5.35,69-43.66,69-43.66C640.87,267.27,596.29,275.57,596.29,275.57Z"/></g><g id="Forma_6759-2" data-name="Forma 6759"><path class="cls-5" d="M683.62,195.58c-8.9-61.84-22.47-49.69-35.59-21.28s-48.8,58.34-48.8,58.34C643.37,224.16,666,169.9,666,169.9c.87,48.53-33.38,91-33.38,91C643.86,257.26,688,226.24,683.62,195.58Z"/></g><g id="Forma_6744_copia" data-name="Forma 6744 copia"><path class="cls-3" d="M728.38,546.71c14.58,7,30.45,1.1,30.45,1.1-26.68-13.59-52.44-52.31-76.32-85.86s-46.74-155.12-96.86-205.46c-38.3-38.48-116.31-54.79-194-54.05-68.46.66-136.67,13.25-177.29,54.05-50.12,50.34-73,171.91-96.86,205.46s-49.64,72.27-76.32,85.86c0,0,15.87,5.86,30.45-1.1,0,0-20.37,23.22-23.11,35.95s24.58,0,24.58,0a127.58,127.58,0,0,0-20.91,31.56C49.34,620.39,64.5,616.5,76,627.43s27.52,18.42,51.73,43.66c148.66,155,395.82,155,544.48,0,24.21-25.24,40.2-32.74,51.73-43.66s26.69-7,23.85-13.21a127.58,127.58,0,0,0-20.91-31.56s27.33,12.74,24.58,0S728.38,546.71,728.38,546.71Z"/></g><g id="Forma_6753-3" data-name="Forma 6753" class="cls-6"><path class="cls-4" d="M726.91,582.66l.22.11c-4.48-3.33-10.19-7.33-18.2-12.95,0,0,25.31,29.34,22.38,37.79s-1.23.89-25.68,17.25-49.09,44.31-88.79,74.85c-36.65,28.19-73.85,58-129.9,77.51a375.63,375.63,0,0,0,185.3-106.13c24.21-25.24,40.2-32.74,51.73-43.66s26.69-7,23.85-13.21A127.58,127.58,0,0,0,726.91,582.66ZM682.51,462c-23.87-33.55-46.74-155.12-96.86-205.46-11-11.05-25.28-20.27-41.88-27.79,18.36,23.15,57,73.79,68.67,103.74,31.79,81.89,70.13,199.44,144.16,216.05,1.42-.38,2.23-.68,2.23-.68C732.15,534.22,706.39,495.5,682.51,462Zm45.87,84.76c.39.19.79.36,1.19.53A108.48,108.48,0,0,0,699,526.16S742.44,568.6,750,587.57c1.42-.81,2.1-2.34,1.54-4.91C748.75,569.93,728.38,546.71,728.38,546.71Z"/></g><g id="Forma_6745" data-name="Forma 6745"><path class="cls-7" d="M682.51,462c-18.16-25.53-35.75-102-65.21-159.34C526.14,199.25,452.55,280.7,402.2,280.7c-53.27,0-84.05-32.5-140.89-27.51-25.83,2.26-49.87,16.46-68.58,31.53-35.68,58-55.1,148.93-75.24,177.23-6.66,9.36-13.47,19.12-20.4,28.62,22.28-24.22,38.67-55,68.09-102,53.73-85.83,160-96.29,182.72-1.83s4.41,117.28-26.78,142-99.25,32-82.56,106,90.52,138,161.07,138,150.09-88.53,157-130.25c5.63-33.82-14.3-73.43-71.18-109.34S439.93,464.26,447,390.41c8.79-92.31,115.86-133.69,176.85-9.91,28.3,57.43,57.42,91.73,80.52,112C696.91,482.4,689.63,472,682.51,462Z"/></g><g id="Forma_6753_copia" data-name="Forma 6753 copia" class="cls-6"><path class="cls-2" d="M701.61,488.78l-.14-.19L698.86,485l-.13-.17q-2.7-3.76-5.37-7.53l-.14-.2-5.45-7.7-2.4-3.4-.27-.37L682.52,462h0c-.25-.35-.5-.72-.75-1.1l-.19-.27-.75-1.15-.05-.08-.71-1.16-.18-.3-.75-1.27-.09-.15-.68-1.22-.18-.33-.74-1.38-.12-.22-.66-1.28-.18-.35-.74-1.48c0-.1-.09-.2-.14-.3-.21-.43-.43-.88-.64-1.33l-.18-.37-.74-1.58-.16-.36-.63-1.39-.18-.39c-.24-.55-.49-1.11-.73-1.67-.07-.14-.13-.29-.19-.43-.21-.47-.41-.95-.62-1.44l-.18-.41c-.24-.58-.48-1.16-.73-1.74l-.21-.51-.61-1.48-.18-.44-.73-1.8c-.07-.2-.15-.39-.23-.59l-.6-1.5-.18-.48-.72-1.84-.27-.68-.57-1.5-.21-.55c-.24-.61-.47-1.23-.7-1.85-.11-.27-.21-.54-.31-.8-.17-.48-.35-1-.53-1.44-.13-.33-.25-.67-.38-1s-.36-1-.55-1.48c-.11-.32-.23-.64-.35-1l-.46-1.26c-.19-.51-.38-1-.56-1.54l-.39-1.08c-.15-.39-.29-.79-.44-1.19l-.3-.84-.84-2.35-.18-.51c-11.8-33-25.18-74.2-42.82-108.51-16.26-18.43-32-31-47.06-39.17,16.91,23.2,34.89,50.18,42.2,69,11.42,29.42,23.69,63.45,38.15,95.74,19.27,30,37.92,50.44,53.74,64.33Q703,490.65,701.61,488.78Z"/></g><g id="Forma_6752" data-name="Forma 6752" class="cls-8"><path class="cls-9" d="M88.5,540.84a41.63,41.63,0,0,0-19.39,8.83c-5.53,6.67-18.46,23-20.6,33-.4,1.87-.16,3.18.55,4.07C56.64,569.93,88.5,540.84,88.5,540.84ZM214.35,256.49c-50.12,50.34-73,171.91-96.86,205.46s-49.64,72.27-76.32,85.86c0,0,1,.35,2.64.79C57.1,543.48,75.45,532.86,98,511.12c55.66-53.58,85.29-193.79,120.34-244.36C240,235.64,295,216.43,334.14,206.25,286.75,212.5,243.46,227.25,214.35,256.49ZM52.18,614.22a2.17,2.17,0,0,0,0,2.42c10.29-13.64,33.69-35.06,39.23-42-7.23,2-14.33,6-19.77,9.65A129.32,129.32,0,0,0,52.18,614.22Z"/></g><g id="Forma_6752-2" data-name="Forma 6752"><path class="cls-2" d="M363.68,486.28c26.27-12.35,59.7-1.74,59.7-1.74C383.54,459.69,363.68,486.28,363.68,486.28Z"/></g><g id="Forma_6745-2" data-name="Forma 6745"><path class="cls-3" d="M408.44,170.27c-6.57-5.64-12.49,22.49-11.38,26.78,0,0-22.38-18.47-29-33-6.41-14.14-8.08,22.65-7.07,28.54a.88.88,0,0,1,.1.44,2.66,2.66,0,0,1-.1-.44c-1-2.42-9.52-12.14-17.51-24.14-8.62-12.93-8.17,23.37-3.67,33.39,0,0-15.66-4-23.85-10.64s-1.89,22.47,19.08,32.29c23.49,11,88.72,40.25,95.76-3.31C430.82,220.16,420.28,180.42,408.44,170.27Z"/></g><g id="Forma_6747" data-name="Forma 6747"><path class="cls-10" d="M314.19,190.22c-5.2-.82,1.71,24.27,20.87,33.25,1.91.89,4.11,1.91,6.53,3C324.63,213.53,317.21,198.53,314.19,190.22Zm25.5,11.27a18.74,18.74,0,0,0,8.94,3.26s-6.48-14.41-8.22-39.06C335.15,165.11,335.94,192.51,339.69,201.49Zm67.65-31.86c-6-1.87-11.07,22.12-10.34,27.07a22.2,22.2,0,0,0,7.4,5.85C404,195,403.77,183,407.34,169.63Zm-41.23-8.54c-4.65-3.28-5.93,24.66-5.17,31a18.47,18.47,0,0,0,7.51,7.89C368.59,196.2,363.6,172.85,366.11,161.09Z"/></g><g id="Forma_4735" data-name="Forma 4735"><path class="cls-2" d="M462,542.38c-21,7.25-102.46,41-102.46,41s25.05,61.77,80.17,22.55C493.57,567.66,471.69,551.45,462,542.38Z"/></g><g id="Forma_4720_copia" data-name="Forma 4720 copia"><path class="cls-11" d="M463.93,542.92c-21.11-39.08-61.8-37.47-65.5-37.24-3.69-.23-44.38-1.84-65.49,37.24-14.14,26.17,28.06,72.27,65.22,72.27h.55C435.87,615.19,478.07,569.09,463.93,542.92Z"/></g><g id="Forma_4722_copia" data-name="Forma 4722 copia"><path class="cls-12" d="M429.15,554.06c-25.9,2.7-39.4,2.41-62.51,0-9-.93-25.16,14.12-20.38,34.76,13.43,14.82,33.3,26.37,51.9,26.37h.55c17.92,0,37-10.73,50.4-24.77C455.15,569,438.36,553.1,429.15,554.06Z"/></g><g id="Forma_4724" data-name="Forma 4724"><path class="cls-13" d="M357.12,575.52c-10.76,1.12-3.53,15.76-3.53,15.76-2.12-6.69,1.36-9.23,1.36-9.23-5.57,6,10.66,22.34,17.12,17.66,2,1.85,1.9,6.24,1.9,6.24C378.17,596.1,367.88,574.41,357.12,575.52Z"/></g><g id="Forma_4725" data-name="Forma 4725"><path class="cls-14" d="M361,576.07c-2.45.92-5.86,3.31-3.33,9.24,3.19,7.47,11.32,15.5,17,11.67C373.3,588.41,367.59,578.54,361,576.07Z"/></g><g id="Forma_4724_copia" data-name="Forma 4724 copia"><path class="cls-13" d="M436.48,575.52c-10.76-1.11-21.05,20.58-16.85,30.43,0,0-.08-4.39,1.91-6.24,6.46,4.68,22.68-11.7,17.12-17.66,0,0,3.48,2.54,1.36,9.23C440,591.28,447.24,576.64,436.48,575.52Z"/></g><g id="Forma_4725_copia" data-name="Forma 4725 copia"><path class="cls-14" d="M432.6,576.07C426,578.54,420.3,588.41,419,597c5.65,3.83,13.78-4.2,17-11.67C438.47,579.38,435.05,577,432.6,576.07Z"/></g><g id="Forma_4728" data-name="Forma 4728"><path class="cls-11" d="M354.15,588.34c7,19.29,17.92,11.91,17.92,11.91C360.13,603.27,354.5,589.24,354.15,588.34Zm2.43-14.17c10.27-.81,19.3,19.29,19.3,19.29C366.59,568.23,356.58,574.17,356.58,574.17Zm81.26-.28s-14.08-3.51-19.84,20.92C418,594.81,424.54,575.74,437.84,573.89Zm-38.59,35.6s4.35-17.12,0-44Zm23.64-8.43c14.67,3.39,16.58-12.22,16.58-12.22C432.42,602.42,422.89,601.06,422.89,601.06Z"/></g><g id="Forma_4723" data-name="Forma 4723"><path class="cls-15" d="M423.71,524.72c-39-8.84-63.91,4.12-69.85,9s-4.16,8.05,3.26,5.44c24-8.45,46.86-9.81,66.59-9.24C431.9,530.11,439.17,529,423.71,524.72Z"/></g><g id="Elipse_4754" data-name="Elipse 4754" class="cls-16"><path class="cls-9" d="M389.35,526.93c-.87-1.69-5.28-2.39-10.9-1.28-6.09.68-10.59,5-9.46,6.38s7.83-1.59,13.17-2.47C387.16,528.79,390.19,528.43,389.35,526.93Z"/></g></svg>