<svg id="Assets" xmlns="http://www.w3.org/2000/svg" viewBox="0 0 800 800"><defs><style>.cls-1{fill:#b35a44;}.cls-2{fill:#f3bfb6;}.cls-3{fill:#d47660;}.cls-4{fill:#c36944;}.cls-5{fill:#904c3a;}.cls-6{opacity:0.62;}.cls-7{fill:#d87d58;}.cls-8{fill:#794134;}.cls-9{opacity:0.29;}.cls-10{fill:#3b2727;}.cls-11{opacity:0.26;}.cls-12{fill:#803523;}.cls-13{opacity:0.47;}.cls-14{fill:#f9ac9b;}.cls-15{fill:#c86a54;}.cls-16{opacity:0.52;}.cls-17{fill:#7c3220;}.cls-18{opacity:0.67;}.cls-19{fill:#5c1f10;}.cls-20{fill:#93412d;}.cls-21{opacity:0.51;}.cls-22{fill:#ea9280;}.cls-23{opacity:0.71;}.cls-24{fill:#af543f;}.cls-25{fill:#241313;}.cls-26{fill:#7e3525;}.cls-27{opacity:0.09;}.cls-28{fill:#f09380;}</style></defs><g id="Forma_5764" data-name="Forma 5764"><path class="cls-1" d="M224.56,304.35c.09.45-33.06-16.23-57.77-21.94-24.64-5.37-53.87-30.9-76.55-20.75s-2.73,24.88,8.39,30.86,21.72,23,42.21,40.44c20.54,17.63,38.61,24.49,64.85,13.75,13.06-5.63,21.89-12.67,25.29-20.55S232.43,309.84,224.56,304.35Z"/></g><g id="Forma_5767" data-name="Forma 5767"><path class="cls-2" d="M160.14,309.35s-30.07-22.62-40.64-27.21c-13.89-6-38.15-12.16-14.45,6.72s47.85,63.63,92,53.4l14.77-18.47Z"/></g><g id="Forma_5766" data-name="Forma 5766"><path class="cls-3" d="M223,320.43s-31.17,2.93-78.26-27.54-54.08-14.11-54.08-14.11c20.19-4.19,45.59,18.07,67.18,34.26s65.49,17.47,65.49,17.47Z"/></g><g id="Forma_5764-2" data-name="Forma 5764"><path class="cls-1" d="M708.34,261.66c-22.69-10.15-51.92,15.38-76.56,20.75-24.7,5.71-57.86,22.39-57.76,21.94-7.87,5.49-9.86,14.07-6.42,21.81s12.22,14.92,25.29,20.55c26.24,10.74,44.31,3.88,64.84-13.75,20.5-17.44,31.1-34.55,42.21-40.44S731,271.8,708.34,261.66Z"/></g><g id="Forma_5767-2" data-name="Forma 5767"><path class="cls-2" d="M679.08,282.14c-10.57,4.59-40.64,27.21-40.64,27.21l-51.73,14.44,14.78,18.47c44.19,10.23,68.33-34.52,92-53.4S693,276.12,679.08,282.14Z"/></g><g id="Forma_5766-2" data-name="Forma 5766"><path class="cls-3" d="M653.89,292.89c-47.09,30.47-78.26,27.54-78.26,27.54l-.34,10.08s43.91-1.28,65.5-17.47,47-38.45,67.18-34.26C708,278.78,701,262.42,653.89,292.89Z"/></g><g id="Forma_5744" data-name="Forma 5744"><path class="cls-4" d="M211.54,232.26s-52.8-25.2-49.34-108.95c2.2-53.06,13.06-62.06,14.87-87.53,1.78-25-29.82-13.12-36.64,6.42C133.54,62,129.21,81.51,108.18,60c-20.51-20.94-41.63,1.43-43,22C63.79,102.8,49.66,94.31,49.66,94.31s-7.58-6.94-16-1.33S17,107.05,17.47,119.82c0,0-11.19,7.19-9.7,16.65,1.28,8.19,11.58,81.19,53.77,96.24C104.6,248.07,173,247.34,179.11,249.44S220.25,248.34,211.54,232.26Z"/></g><g id="Forma_5774" data-name="Forma 5774"><path class="cls-5" d="M180.86,233.15s-108-3-132-21C25.59,194.5,10.22,149,10.22,149s1.29,39.73,30.21,69.85c29.85,31.1,116.18,27.77,116.18,27.77L284.91,252C255.18,235.3,180.86,233.15,180.86,233.15Z"/></g><g id="Forma_5775" data-name="Forma 5775" class="cls-6"><path class="cls-5" d="M51.21,147.26c-10.31-39.64-30.65-27.78-30.65-27.78,5.83,2.17,16.82.32,24.12,34.13,7.5,34.72,34.49,43.79,34.49,43.79C73.35,193.32,61.78,187.91,51.21,147.26Zm109.88-30.87c2.53-26,5.21-42.38,10.47-59.85,7.79-25.9.84-28.39.84-28.39-3.34,27.1-14.83,57.16-20,92.2-9.23,62.5,39.36,99.46,39.36,99.46S154.65,182.44,161.09,116.39ZM79.51,155.66c-7.14-20.43-14.25-39.08-19-47.8C52,92,47.92,95.15,47.92,95.15c2.58,1.41,10.43,24,25.15,62.53,15,39.19,65.62,42,65.62,42S91.12,188.88,79.51,155.66ZM98.9,56.11C114,91.9,109.82,98.34,123,142.32c13.54,45.08,33.84,46.51,33.84,46.51-25.59-30-27.15-82.3-36.41-106.28C111.32,58.86,98.9,56.11,98.9,56.11Z"/></g><g id="Forma_5776" data-name="Forma 5776"><path class="cls-7" d="M73.91,178.63c-9.84-16.52-20.81-93.8-43-76.72-8.73,6.72.69,7.94.69,7.94s10.56-2.46,23,40.38c10.79,37.1,22.34,48,57.85,56.22C106.76,198.12,83.75,195.13,73.91,178.63ZM159.72,27.86c-14.6,5-21.29,26.53-27.65,61.77-6.51,36.07,15.57,69.88,15.57,69.88C131.93,118.92,164.1,40.34,165,36.32,166.08,31.87,169.19,24.65,159.72,27.86ZM70,204.54c-13.36-7.42-23.47-18.46-30.76-36.3-6.8-16.65-10.46-28.59-12.48-33.84s-11.75-3.87-9.17,4.93c2.43,8.26,12,56.46,46.82,71.67,13.39,5.84,18.94,6.8,21.61,3.92S83.47,212.05,70,204.54ZM103.71,97.76C100.06,78.28,97.3,66.5,92.93,60.93s-14,0-18.1,8.18S66.6,90.49,70.66,94.45c5.81,5.66,12.2,35.76,27,63.38,15,27.95,47,33.24,47,33.24C111.05,167.21,107.29,116.85,103.71,97.76Z"/></g><g id="Forma_5743" data-name="Forma 5743"><path class="cls-5" d="M203.89,235.88s-11.78,5.7-38.3-18.37c-25.81-23.41-48.38-4.42-28.55,17s55.59,48.79,83.26,25.19Z"/></g><g id="Forma_5773" data-name="Forma 5773"><path class="cls-8" d="M203.89,235.88s-11.78,5.7-38.3-18.37a44.26,44.26,0,0,0-15.21-9.46c3.25,6.4,14.9,27.24,31.33,33.44a75.8,75.8,0,0,0,29.22,4.6Z"/></g><g id="Forma_5772" data-name="Forma 5772"><path class="cls-7" d="M134.87,221c-2-3.41-.19-9.63,1-12.93-7.92,3.8-9.69,14.71,1.13,26.4,16.66,18,44.24,40,69.15,32.91C173.23,269.19,137.4,225.3,134.87,221Z"/></g><g id="Forma_5742" data-name="Forma 5742"><path class="cls-5" d="M291.46,246.58s7-11.63,3.71-22.08-11.77-19.57-22.78-4.28-26,40.75-46.92,11.92c-20.33-28-36-11.07-28.84,6.58,7.11,17.48,28.27,53.39,66.27,31.85,18.26-10.38,22.49,10.93,27.55,13.94s33.4,30.78,34.06-3.82A54.11,54.11,0,0,0,291.46,246.58Z"/></g><g id="Forma_5771" data-name="Forma 5771" class="cls-9"><path class="cls-10" d="M249,244.4c-6.92,2.37-14.73-.12-23.53-12.26a48.83,48.83,0,0,0-11.14-11.57c2.61,5.15,9.15,17.53,14.57,23.85,9.19,10.71,31.22,11.3,44.3-4.93C263.9,243.76,255.59,248.12,249,244.4Zm42.46,2.18s7-11.63,3.71-22.08c-.3-1-.65-1.92-1-2.85-1.07,6.93-4.75,25.67-13.87,33.81,0,0,6.32-1.17,9.82-4.23,12.32,4.47,16.74,11.78,22.41,26.91a25.62,25.62,0,0,1,11.73,1.6A54.25,54.25,0,0,0,291.46,246.58Z"/></g><g id="Forma_5770" data-name="Forma 5770"><path class="cls-7" d="M289.73,214.83c-4.27-4.16-10.29-4.41-17.34,5.39-6.55,9.1-14.44,21.67-24.21,24.44,4.29.19,15.47-1,24.22-14.8C278.27,220.61,282.11,214.18,289.73,214.83Zm-87.8,18.65c-3.9-8.67,1.37-14.38,4.63-16.21-9.59-1.24-14.6,9.95-9.93,21.45,6.13,15.09,22.59,43.71,51.37,37.69C220,274.28,207.11,245,201.93,233.48Zm104.5,53.29C292.25,265.31,283.49,265,274.37,268c9,1.86,12.31,14.3,16.08,16.54,2,1.18,7.41,6.05,13.4,9.56C304,291.39,307.86,288.93,306.43,286.77Z"/></g><g id="Forma_5744-2" data-name="Forma 5744"><path class="cls-4" d="M764.65,119.82c.49-12.77-7.79-21.22-16.21-26.84s-16,1.33-16,1.33S718.33,102.8,716.94,82c-1.38-20.52-22.5-42.89-43-22-21,21.48-25.36,1.94-32.26-17.83-6.81-19.54-38.41-31.38-36.64-6.42,1.81,25.47,12.68,34.47,14.87,87.53,3.47,83.75-49.33,109-49.33,109-8.71,16.08,26.26,19.3,32.42,17.18s74.52-1.37,117.57-16.73c42.2-15.05,52.5-88.05,53.78-96.24C775.83,127,764.65,119.82,764.65,119.82Z"/></g><g id="Forma_5774-2" data-name="Forma 5774"><path class="cls-5" d="M733.21,212.11c-23.91,18.07-132,21-132,21s-74.31,2.15-104,18.89L625.5,246.6s86.34,3.33,116.19-27.77C770.61,188.71,771.9,149,771.9,149S756.52,194.5,733.21,212.11Z"/></g><g id="Forma_5775-2" data-name="Forma 5775" class="cls-6"><path class="cls-5" d="M683.22,56.11s-12.42,2.75-21.57,26.44c-9.26,24-10.82,76.27-36.41,106.28,0,0,20.29-1.43,33.84-46.51C672.3,98.34,668.14,91.9,683.22,56.11Zm-53.5,64.24c-5.17-35-16.66-65.1-20-92.2,0,0-6.94,2.49.85,28.39C615.82,74,618.5,90.4,621,116.39c6.43,66.05-30.67,103.42-30.67,103.42S638.94,182.85,629.72,120.35ZM734.2,95.15s-4.08-3.18-12.64,12.71c-4.7,8.72-11.81,27.37-18.95,47.8-11.62,33.22-59.18,44.07-59.18,44.07s50.63-2.86,65.62-42C723.77,119.2,731.62,96.56,734.2,95.15Zm-3.29,52.11c-10.57,40.65-22.14,46.06-28,50.14,0,0,27-9.07,34.49-43.79,7.3-33.81,18.29-32,24.12-34.13C761.56,119.48,741.22,107.62,730.91,147.26Z"/></g><g id="Forma_5776-2" data-name="Forma 5776"><path class="cls-7" d="M684.46,157.83c14.8-27.62,21.18-57.72,27-63.38,4.06-4-.05-17.17-4.17-25.34s-13.75-13.72-18.09-8.18-7.13,17.35-10.79,36.83c-3.58,19.09-7.34,69.45-40.93,93.31C637.47,191.07,669.48,185.78,684.46,157.83Zm-34.41-68.2c-6.36-35.24-13-56.82-27.65-61.77-9.48-3.21-6.36,4-5.32,8.46.94,4,33.11,82.6,17.39,123.19C634.47,159.51,656.56,125.7,650.05,89.63ZM755.38,134.4c-2,5.25-5.67,17.19-12.48,33.84-7.28,17.84-17.39,28.88-30.75,36.3s-18.7,7.51-16,10.38,8.23,1.92,21.62-3.92c34.83-15.21,44.39-63.41,46.81-71.67C767.14,130.53,757.39,129.18,755.38,134.4Zm-27.87,15.83c12.46-42.84,23-40.38,23-40.38s9.42-1.22.68-7.94c-22.2-17.08-33.16,60.2-43,76.72s-32.85,19.49-38.54,27.82C705.16,198.24,716.72,187.33,727.51,150.23Z"/></g><g id="Forma_5743-2" data-name="Forma 5743"><path class="cls-5" d="M616.53,217.51c-26.53,24.07-38.31,18.37-38.31,18.37l-16.4,23.82c27.67,23.6,63.37-3.72,83.26-25.19S642.34,194.1,616.53,217.51Z"/></g><g id="Forma_5773-2" data-name="Forma 5773"><path class="cls-8" d="M616.53,217.51c-26.53,24.07-38.31,18.37-38.31,18.37l-7,10.21a75.75,75.75,0,0,0,29.21-4.6c16.44-6.2,28.08-27,31.34-33.44A44.17,44.17,0,0,0,616.53,217.51Z"/></g><g id="Forma_5772-2" data-name="Forma 5772"><path class="cls-7" d="M646.2,208.11c1.23,3.3,3.08,9.52,1,12.93-2.54,4.26-38.37,48.15-71.32,46.38,24.91,7.08,52.49-14.93,69.15-32.91C655.9,222.82,654.13,211.91,646.2,208.11Z"/></g><g id="Forma_5742-2" data-name="Forma 5742"><path class="cls-5" d="M556.65,232.14c-20.9,28.83-35.85,3.47-46.92-11.92s-19.55-6.08-22.79,4.28,3.72,22.08,3.72,22.08a54.08,54.08,0,0,0-33.05,34.11c.66,34.6,29,6.85,34.06,3.82s9.29-24.32,27.55-13.94c38,21.54,59.16-14.37,66.27-31.85C592.66,221.07,577,204.09,556.65,232.14Z"/></g><g id="Forma_5771-2" data-name="Forma 5771" class="cls-9"><path class="cls-10" d="M488,221.65c-.4.93-.74,1.89-1.05,2.85-3.26,10.45,3.72,22.08,3.72,22.08a54.25,54.25,0,0,0-32.76,33.16,25.58,25.58,0,0,1,11.72-1.6C475.3,263,479.71,255.7,492,251.23c3.5,3.06,9.82,4.23,9.82,4.23C492.73,247.32,489.06,228.58,488,221.65Zm68.66,10.49c-8.8,12.14-16.61,14.63-23.53,12.26-6.59,3.72-14.9-.64-24.2-4.91,13.07,16.23,35.1,15.64,44.3,4.93,5.42-6.32,11.95-18.7,14.56-23.85A49,49,0,0,0,556.65,232.14Z"/></g><g id="Forma_5770-2" data-name="Forma 5770"><path class="cls-7" d="M475.69,286.77c-1.43,2.16,2.44,4.62,2.57,7.3,6-3.51,11.44-8.38,13.41-9.56,3.77-2.24,7.09-14.68,16.08-16.54C498.62,265,489.87,265.31,475.69,286.77Zm99.87-69.5c3.26,1.83,8.53,7.54,4.63,16.21-5.19,11.53-18.1,40.8-46.07,42.93,28.78,6,45.23-22.6,51.37-37.69C590.16,227.22,585.14,216,575.56,217.27Zm-65.83,2.95c-7.06-9.8-13.07-9.55-17.35-5.39,7.63-.65,11.47,5.78,17.34,15,8.75,13.79,19.93,15,24.22,14.8C524.17,241.89,516.27,229.32,509.73,220.22Z"/></g><g id="Forma_5734_copia" data-name="Forma 5734 copia"><path class="cls-3" d="M615.93,520.62c-11.61-30.73,1.35-71,5.38-105.8,5.11-44.28-21.5-76.92-21.5-76.92s4.62-19.21-17.47-42.32-81.28-16.46-81.28-16.46c-60.63-38.1-142.57-38.1-203.21,0,0,0-53.83-9.35-75.91,13.77s-23.51,39-23.51,39-29.4,21.48-20.83,83c4.85,34.73,17,75.07,5.38,105.8s-23,114.43-4,135.7,110.94,86.32,219,86.32h3c108,0,200-65,219-86.32S627.55,551.34,615.93,520.62Z"/></g><g id="Forma_5742_copia" data-name="Forma 5742 copia" class="cls-11"><path class="cls-12" d="M461.51,260.52h0a197.25,197.25,0,0,0-69.9-9.81h-.15c-1.23,0-2.46.11-3.68.18l-.32,0c-1.23.08-2.47.16-3.7.26h-.13q-5.82.47-11.61,1.26l-.38.06c-1.11.16-2.22.32-3.33.5l-.67.1c-1,.17-2.09.35-3.13.54l-.65.11-3.4.65-.29.06q-3.8.76-7.54,1.68l-.39.09-3.22.82-.8.22c-1,.25-1.89.52-2.84.79l-.87.24q-1.44.42-2.88.87l-.71.21c-1.19.37-2.36.75-3.54,1.14l9.85,3.15c-7.83,10.15-15.37,18.14-18.81,22.84s-4.7,8.65,3.89,4.13,13.17-7.07,13.17-7.07-19.13,16.84-10.58,41.9c5.53,16.2,13.76.49,14.85-2,3.05-6.93,8.92-14.67,8.92-14.67s-4,15.67,5.28,33.2c9.48,17.94,11,3.46,12.67-2.24s8.44-22.64,16.5-27.37c0,0-2.12,11.42.19,12.79s4.88-8.31,15.09-16.18c11-8.45,18-12.95,23.54-23.53,0,0-2.94,17-15.14,28.25,0,0-4.35,6.15,10.18-2.91,10.92-6.81,22.89-15.15,31.31-31.45,1.07-2.07,2.11-3.9,3.12-5.53,3.64.43,16.44,2.39,24.54,9.3,0,0,7.34-2.17,18.12-4.31-1.92.16-3,.28-3,.28A182.35,182.35,0,0,0,461.51,260.52Zm154.42,260.1c-11.61-30.73,1.35-71,5.38-105.8,5.11-44.28-21.5-76.92-21.5-76.92s4.62-19.21-17.47-42.32c-10.63-11.14-29.87-15.36-47-16.75,8.84,3.8,48.59,22.62,50,54.37,0,0,31.93,35.56,23.17,106.47s-5,59.25,6.39,104.8,12.71,92.36-1.68,103.45-45,33.92-45,33.92,14.88-21.8-1.35-40.3c-5.75-6.57-13.43-.34-13.43-.34,3.18-9.74,1.22-55.49-44.67-67.51,9.48,80,24.32,115.72,14,143.25,49.82-20.64,86-48.15,97.18-60.62C639,635.05,627.55,551.34,615.93,520.62Z"/></g><g id="Forma_5748" data-name="Forma 5748" class="cls-13"><path class="cls-14" d="M281.11,277.45c-17.7-.86-45,.59-59.17,15.44-22.08,23.11-23.51,39-23.51,39s-29.4,21.48-20.83,83c4.85,34.73,17,75.07,5.38,105.8s-23,114.43-4,135.7c3.6,4,9.84,9.64,18.3,16.08-13.38-21.31-16.52-40.73-14.94-85.95,1.87-53.88,21.86-85.16,12.76-123.27-13.24-55.45-8.18-91.05,4-113.53,9.47-17.43,46-16.45,46-16.45-14.83-6.51-30.9-5.38-30.9-5.38s3.32-19.6,14.1-30.56C237.66,287.76,257.69,279,281.11,277.45Zm17,1.53c4.47,1.91,8.84,4.17,8.84,4.17,4.17-5.62,31.36-18.74,53.3-28.7A186.35,186.35,0,0,0,298.08,279Z"/></g><g id="Forma_5736" data-name="Forma 5736"><path class="cls-1" d="M370.4,454.11S371.8,351,262.92,359.39c-94.59,7.34-46.56,98.28-57.1,127.64S199,605.1,329.42,540.77C379.86,515.48,370.4,454.11,370.4,454.11Z"/></g><g id="Forma_5736_copia" data-name="Forma 5736 copia"><path class="cls-1" d="M596.12,487c-10.54-29.36,37.48-120.3-57.1-127.64C430.13,351,431.53,454.11,431.53,454.11s-9.46,61.37,41,86.66C602.91,605.1,606.66,516.39,596.12,487Z"/></g><g id="Forma_5741_copia" data-name="Forma 5741 copia"><path class="cls-15" d="M435.56,437c6.94-53.1,28-66.1,22.51-74.9-11.87-17.36-59.79-14.78-59.79-14.78s-47.92-2.58-59.79,14.78c-5.48,8.8,15.58,21.8,22.51,74.9,11.14,85.39-53.66,90.73-93.71,157.53,39.18,9.4,119.64,9.46,131,9.42s91.81,0,131-9.42C489.22,527.71,424.42,522.37,435.56,437Z"/></g><g id="Forma_5761" data-name="Forma 5761" class="cls-16"><path class="cls-14" d="M445.3,536.07c-7.21,2.11-39.52,11.71-60.12,5.71-32.58-9.49-46.19-5.5-49.53-4.11a2,2,0,0,1-.85.42,6.87,6.87,0,0,1,.85-.42c1.9-1.25,7.45-6.31,21.32-26.79,39.53-58.41-9.81-128.81-17.5-139.11C344.11,381.9,356.09,399.39,361,437c10.48,80.34-46.26,89.82-86.37,146.3-.82,2.23-1.3,3.51-1.3,3.51L317.67,565l102.44-2.36L489,555.22C472.85,537.69,458.23,532.29,445.3,536.07Z"/></g><g id="Forma_5746_copia_2" data-name="Forma 5746 copia 2"><path class="cls-17" d="M326.74,765.82s.13,24,28.21,27.2c25.75,2.94,62.92,2.94,88.67,0,28.08-3.21,28.22-27.2,28.22-27.2C429.42,748.35,369.16,748.35,326.74,765.82Z"/></g><g id="Forma_5760" data-name="Forma 5760" class="cls-18"><path class="cls-19" d="M326.74,765.82a28.75,28.75,0,0,0,5.39,15.24,300.15,300.15,0,0,0,39.95-5.5c25.83-5.15,66.5-1.19,93.34,6.82a28.75,28.75,0,0,0,6.42-16.56C429.42,748.35,369.16,748.35,326.74,765.82Z"/></g><g id="Forma_5740_copia" data-name="Forma 5740 copia"><path class="cls-20" d="M560.18,637.51c-4.59-8.65-9.26-14.25-13.71-17.78-.55-1.67-1.12-3.36-1.74-5.06-24.39-66.81-85-69.85-102.45-66.17-40.42,8.51-45.57,8.51-86,0-17.45-3.68-78.06-.64-102.44,66.17q-.93,2.55-1.74,5.06c-4.45,3.53-9.12,9.13-13.71,17.78-5.07,9.55-.36,18.34,6.63,27.38.59,38.44,18.22,62.3,18.22,62.3s-17,37,9.07,46.35,45,6,83.3-3c32.53-7.62,54.8-7.62,87.33,0,38.33,9,57.19,12.36,83.3,3s9.07-46.35,9.07-46.35,17.63-23.86,18.23-62.3C560.54,655.85,565.25,647.06,560.18,637.51Z"/></g><g id="Forma_5759" data-name="Forma 5759"><path class="cls-12" d="M561.35,640.17c-.87,3.8-3.18,9.85-9.23,17.15-10.47,12.62-28.48,41.41-33.59,61.47,0,0,19.32-32.42,24.52-35.27,0,0-.45,20-2.37,34.59a122,122,0,0,0,12.87-53.22C559.89,656.7,564.35,648.71,561.35,640.17ZM536.66,618.7A78.67,78.67,0,0,1,546.77,620l-.3-.25c-.55-1.67-1.12-3.36-1.74-5.06-13.79-37.76-39.14-55.15-61.74-62.47C499.35,562.79,529.25,586.1,536.66,618.7ZM508.79,769.85c-21.05,1-56.21-13.6-104.46-13.78-57.76-.21-73.16,15.95-100.15,23,14.13-.17,29.63-3.47,51.44-8.57,32.53-7.62,54.8-7.62,87.33,0,38.33,9,57.19,12.36,83.3,3,14.57-5.21,15.71-19,13.86-30.23C537.05,749.68,526.35,769,508.79,769.85Z"/></g><g id="Forma_5758" data-name="Forma 5758" class="cls-21"><path class="cls-22" d="M527.26,620.71s-40.4-6.9-55.76,24.52a59.8,59.8,0,0,0-5.37,30.9S482.69,630.67,527.26,620.71ZM413.06,726.18c35-.47,80.28,11.08,80.28,11.08C455.86,719.82,413.06,726.18,413.06,726.18Zm-57-153c-5.66-2.34-10.34-1.9-15.3-.35a31,31,0,0,0-14.22,9.51c-4.12,5.18-5.87,12.55-6.12,19s1.23,12.24,5.87,16.92c8.83,8.83,26.24-3.15,33.62-11.43S368.28,578.44,356.1,573.22Z"/></g><g id="Forma_5758_copia" data-name="Forma 5758 copia"><path class="cls-22" d="M346.85,575.34c-5,.11-9.13,1.38-12.11,3.66s-5.37,5.65-7.33,9.88-2.21,7-2,9a7,7,0,0,0,2.28,4.53c2.27,2.76,6-4,9.45-10.78,1.37-3.28,5.08-7.09,9-9.23C350.16,580.64,352.68,575.27,346.85,575.34Z"/></g><g id="Forma_5758_copia_2" data-name="Forma 5758 copia 2"><path class="cls-22" d="M499,625.79c-.78-.89-3.93,0-7.89,1.54A25.27,25.27,0,0,0,481,635.05a19.92,19.92,0,0,0-3.67,7.36c-.26,1.33,0,1.89.79,1.77,1.69.13,4.74-4,8.25-7.17C489.76,633.45,499.43,628,499,625.79Z"/></g><g id="Forma_5746" data-name="Forma 5746"><path class="cls-14" d="M273.67,730.21c-9.37-3.7-23.09-35.86-26.63-44.69,4.75,26.15,16.21,41.67,16.21,41.67s-17,37,9.07,46.35c1.3.46,2.58.9,3.85,1.3-16.19-9.42-14.07-38.6-4.52-38.25,57.18,3,71.88-5.37,71.88-5.37C282,740.14,273.67,730.21,273.67,730.21Zm-27.55-89.68c3.45-6.21,16.85-13.9,27.88-13.77,15.33.18,22.14,3,31.24,7.72-14.81-21.08-38.63-16.12-38.63-16.12s1.84-10.46,19.48-34.59c21.32-29.15,60.61-33.26,80.1-33.37-3.28-.58-6.61-1.21-9.9-1.9-17.45-3.68-78.06-.64-102.44,66.17q-.93,2.55-1.74,5.06c-4.45,3.53-9.12,9.13-13.71,17.78-5.07,9.55-.36,18.34,6.63,27.38v0a81.59,81.59,0,0,0,15.54,11.21C250.9,663.38,238.88,653.59,246.12,640.53Z"/></g><g id="Forma_5749" data-name="Forma 5749" class="cls-23"><path class="cls-12" d="M318,706.36c-1.53-21.42-21.07-56.9-50.71-58.78-21.28-1.34-18.87,16.15-8.74,26.87s14.06,22.07,24.19,42.66C291.92,735.78,319.54,727.79,318,706.36Z"/></g><g id="Forma_5746_copia" data-name="Forma 5746 copia"><path class="cls-24" d="M277.72,697.85c11.65,31.89,18.2,18,18.2,18C289.87,718.41,277.72,697.85,277.72,697.85Zm12.59-16.64c-17.58-16.74-24-26.62-24-26.62s11.37,24.59,21.63,31.53c10.86,7.34,14.83,15,15.45,20C303.4,706.1,309.14,699.14,290.31,681.21Z"/></g><g id="Forma_5738" data-name="Forma 5738"><path class="cls-10" d="M289.52,690c-13.49-9-25.26-33-25.26-33a101.79,101.79,0,0,0,19.45,31.64c-7.53-.21-4.6,9,2.3,17.67,7.18,9,11.55,7,11.55,7,2.57,2.07,2.48,6.65,2.48,6.65C304,717.19,303.78,699.51,289.52,690Z"/></g><g id="Forma_5739" data-name="Forma 5739"><path class="cls-25" d="M289.52,690c-.29-.19-.57-.39-.86-.6-1.52,1-4.36,3.59-2.65,8.38,1.94,5.4,10.38,16,16.15,13.09A28.58,28.58,0,0,0,289.52,690Z"/></g><g id="Forma_5749-2" data-name="Forma 5749" class="cls-23"><path class="cls-12" d="M533.64,647.58c-29.64,1.88-49.18,37.36-50.72,58.78s26.09,29.42,35.27,10.75c10.13-20.59,13.93-31.8,24.18-42.66S554.92,646.24,533.64,647.58Z"/></g><g id="Forma_5746_copia-2" data-name="Forma 5746 copia"><path class="cls-24" d="M513,686.12c10.26-6.94,21.64-31.53,21.64-31.53s-6.41,9.88-24,26.62c-18.83,17.93-13.09,24.89-13.09,24.89C498.14,701.1,502.11,693.46,513,686.12Zm-8,29.77s6.54,13.85,18.19-18C523.2,697.85,511.06,718.41,505,715.89Z"/></g><g id="Forma_5738-2" data-name="Forma 5738"><path class="cls-10" d="M517.21,688.63A101.58,101.58,0,0,0,536.66,657s-11.77,23.92-25.25,33c-14.26,9.56-14.51,27.24-10.52,30,0,0-.09-4.58,2.48-6.65,0,0,4.36,2,11.54-7C521.82,697.67,524.75,688.42,517.21,688.63Z"/></g><g id="Forma_5739-2" data-name="Forma 5739"><path class="cls-25" d="M512.26,689.35c-.28.21-.57.41-.85.6a28.58,28.58,0,0,0-12.64,20.87c5.76,2.88,14.21-7.69,16.14-13.09C516.63,692.94,513.79,690.35,512.26,689.35Z"/></g><g id="Forma_5742-3" data-name="Forma 5742"><path class="cls-26" d="M462.7,223.56c-14.17-12.1-20.48-26.3-21.18-31.72s-10,.56-10.09,9.22S437,217,435.8,225.72c0,0-11.95-22.14-53.11-19.78s-50.52,17.5-46.73,19.51,16.6,6.7,22.52,6.51a36.26,36.26,0,0,0-21.85,8.94c-10.07,8.92-17.76,23.64-22.18,27.92s1.57,5.55,11.09,2.44,14.63-4.91,14.63-4.91-22.38,13.81-18,40.69c2.84,17.4,13.93,2.87,15.46.55,4.3-6.5,11.6-13.36,11.6-13.36s-6.73,15.23-.33,34.6c6.55,19.83,10.61,5.4,13.27-.1s12.49-21.52,21.52-24.94c0,0-4.14,11.22-2,13s6.4-7.58,18.15-13.82c12.62-6.7,20.58-10.05,28-19.83,0,0-5.93,16.77-20.27,26.06,0,0-5.49,5.49,10.86-1.21,12.29-5,25.91-11.44,37.29-26.53,11.91-15.8,19.41-15.9,19.41-15.9S476.86,235.65,462.7,223.56Z"/></g><g id="Forma_5764-3" data-name="Forma 5764" class="cls-27"><path class="cls-28" d="M348.89,295.12a52.58,52.58,0,0,0,0,33.71c2.92,8.85,5.35,10.88,7.38,9.91-4.06-11-3.55-34.16,1.35-51.9A22.78,22.78,0,0,0,348.89,295.12Zm34.55,8.78.26-.11s-4.14,11.22-2,13a.87.87,0,0,0,.77.2c2.92-11.25,20.87-34.86,20.87-34.86C393.5,286.64,387.28,295.62,383.44,303.9Zm-43.27-37.54h0s-22.38,13.81-18,40.69c1.19,7.32,3.85,9,6.64,8.29-1.54-.53-2.1-2.41-3.43-8-2.62-11.07,8.43-35.23,40.65-47.69C366,259.64,354.76,258,340.17,266.36Zm16.89-34.44a14,14,0,0,0,1.42,0,36.26,36.26,0,0,0-21.85,8.94c-10.07,8.92-17.76,23.64-22.18,27.92-1.48,1.43-1.79,2.53-1.2,3.23a19.69,19.69,0,0,0,7.11-4c7.52-6.18,19-29.39,54.25-33.73A46.83,46.83,0,0,0,357.06,231.92Zm80.18-26.7c-3.45-8.15-.29-12.7,3.33-15.15-2.54-1.63-9.11,3.73-9.14,11,0,8.6,5.5,15.85,4.39,24.49l.08.16s4.83,1.18,6.72,4C442.53,228,443.61,220.25,437.24,205.22Zm-54.55.72c-41.16,2.35-50.52,17.5-46.73,19.51l.3.16c6.13-4.53,9.2-17.47,76.5-16.29C405.14,206.79,395.29,205.21,382.69,205.94Zm24.88,103.27s-1.05,1.05-.87,1.67c27.6-16.09,28.53-38.48,28.53-38.48a61.52,61.52,0,0,1-7.78,11.75C425.93,287.89,419.82,301.27,407.57,309.21Z"/></g></svg>